<svg xmlns="http://www.w3.org/2000/svg" xmlns:xlink="http://www.w3.org/1999/xlink" width="684" zoomAndPan="magnify" viewBox="0 0 513 162.749997" height="217" preserveAspectRatio="xMidYMid meet" version="1.0"><defs><g/><clipPath id="8c131667c1"><path d="M 150.496094 10.148438 L 213.398438 10.148438 L 213.398438 67.8125 L 150.496094 67.8125 Z M 150.496094 10.148438 " clip-rule="nonzero"/></clipPath></defs><g clip-path="url(#8c131667c1)"><path fill="#89b9d0" d="M 150.929688 34.675781 C 151.980469 40.433594 156.714844 45.136719 162.464844 46.09375 C 163.046875 46.191406 163.175781 46.386719 163.175781 46.941406 C 163.15625 53.234375 163.15625 55.984375 163.15625 60.289062 C 167.753906 58.886719 174.457031 58 181.929688 58 C 189.394531 58 196.097656 58.886719 200.695312 60.289062 C 200.695312 55.984375 200.707031 53.234375 200.6875 46.941406 C 200.6875 46.386719 200.816406 46.191406 201.398438 46.09375 C 207.148438 45.136719 211.871094 40.433594 212.933594 34.675781 C 214.335938 26.976562 209.5625 19.707031 201.925781 17.953125 C 199.441406 17.378906 196.976562 17.515625 194.53125 18.265625 C 194.511719 18.277344 194.480469 18.277344 194.460938 18.277344 C 193.535156 17.019531 192.757812 15.78125 191.792969 14.71875 C 189.21875 11.875 185.957031 10.304688 182.125 10.148438 L 181.726562 10.148438 C 177.90625 10.304688 174.644531 11.875 172.070312 14.71875 C 171.097656 15.78125 170.328125 17.019531 169.402344 18.277344 L 169.410156 18.285156 C 169.410156 18.285156 169.402344 18.285156 169.390625 18.285156 L 169.390625 18.277344 C 169.371094 18.277344 169.34375 18.277344 169.324219 18.265625 C 166.886719 17.515625 164.421875 17.378906 161.929688 17.953125 C 154.289062 19.707031 149.515625 26.976562 150.929688 34.675781 Z M 181.929688 60.921875 C 189.394531 60.921875 196.097656 61.808594 200.695312 63.210938 L 200.695312 67.636719 C 196.097656 66.234375 189.394531 65.347656 181.929688 65.347656 C 174.457031 65.347656 167.753906 66.234375 163.15625 67.636719 L 163.15625 63.210938 C 167.753906 61.808594 174.457031 60.921875 181.929688 60.921875 Z M 181.929688 60.921875 " fill-opacity="1" fill-rule="nonzero"/></g><g fill="#363d46" fill-opacity="1"><g transform="translate(120.919351, 113.048885)"><g><path d="M 34.578125 -20.203125 L 36.90625 -19.046875 C 33.90625 -13.753906 30.789062 -9.285156 27.5625 -5.640625 C 24.332031 -1.992188 21.28125 0.648438 18.40625 2.296875 C 15.539062 3.941406 12.867188 4.566406 10.390625 4.171875 C 7.921875 3.785156 5.847656 2.421875 4.171875 0.078125 C 2.503906 -2.253906 1.320312 -5.8125 0.625 -10.59375 C -0.0703125 -15.382812 -0.140625 -21.148438 0.421875 -27.890625 C 0.972656 -34.515625 2.023438 -40.25 3.578125 -45.09375 C 5.140625 -49.9375 6.867188 -53.539062 8.765625 -55.90625 C 10.660156 -58.28125 12.664062 -60.035156 14.78125 -61.171875 C 16.894531 -62.316406 18.785156 -62.859375 20.453125 -62.796875 C 22.128906 -62.742188 23.523438 -62.359375 24.640625 -61.640625 C 29.484375 -58.628906 30.515625 -50.609375 27.734375 -37.578125 L 25.3125 -39.421875 C 25.363281 -39.703125 25.414062 -40.101562 25.46875 -40.625 C 25.53125 -41.15625 25.601562 -42.070312 25.6875 -43.375 C 25.769531 -44.6875 25.753906 -45.84375 25.640625 -46.84375 C 25.523438 -47.851562 25.226562 -48.785156 24.75 -49.640625 C 24.28125 -50.503906 23.628906 -50.96875 22.796875 -51.03125 C 22.347656 -51.082031 21.957031 -51.078125 21.625 -51.015625 C 21.289062 -50.960938 20.71875 -50.570312 19.90625 -49.84375 C 19.101562 -49.125 18.394531 -48.066406 17.78125 -46.671875 C 17.175781 -45.285156 16.535156 -43.0625 15.859375 -40 C 15.191406 -36.9375 14.691406 -33.265625 14.359375 -28.984375 C 13.753906 -22.191406 13.742188 -17.023438 14.328125 -13.484375 C 14.910156 -9.953125 15.828125 -7.570312 17.078125 -6.34375 C 18.328125 -5.125 19.910156 -5.039062 21.828125 -6.09375 C 23.753906 -7.15625 25.773438 -8.867188 27.890625 -11.234375 C 30.003906 -13.597656 32.234375 -16.585938 34.578125 -20.203125 Z M 34.578125 -20.203125 "/></g></g></g><g fill="#363d46" fill-opacity="1"><g transform="translate(153.486529, 113.048885)"><g><path d="M 41.765625 -28.640625 L 42.765625 -26.890625 C 42.484375 -26.671875 42.09375 -26.394531 41.59375 -26.0625 C 41.53125 -26 41.414062 -25.925781 41.25 -25.84375 C 41.082031 -25.757812 40.972656 -25.691406 40.921875 -25.640625 L 40.171875 -25.140625 C 40.117188 -25.085938 39.992188 -25.003906 39.796875 -24.890625 C 39.597656 -24.773438 39.441406 -24.6875 39.328125 -24.625 C 39.222656 -24.570312 39.054688 -24.460938 38.828125 -24.296875 C 38.609375 -24.128906 38.441406 -24.019531 38.328125 -23.96875 C 37.722656 -23.6875 37.363281 -23.488281 37.25 -23.375 C 37.132812 -23.269531 36.9375 -23.144531 36.65625 -23 C 36.382812 -22.863281 36.191406 -22.769531 36.078125 -22.71875 C 36.023438 -22.65625 35.925781 -22.582031 35.78125 -22.5 C 35.644531 -22.414062 35.550781 -22.375 35.5 -22.375 C 35.269531 -22.269531 35.15625 -22.21875 35.15625 -22.21875 C 35.101562 -22.21875 35.046875 -22.1875 34.984375 -22.125 C 34.929688 -22.070312 34.878906 -22.046875 34.828125 -22.046875 C 34.597656 -21.992188 34.375 -21.882812 34.15625 -21.71875 C 33.9375 -21.65625 33.710938 -21.539062 33.484375 -21.375 C 32.878906 -21.101562 31.90625 -20.6875 30.5625 -20.125 C 29.726562 -19.789062 28.703125 -19.429688 27.484375 -19.046875 C 27.304688 -18.984375 27.066406 -18.910156 26.765625 -18.828125 C 26.460938 -18.742188 26.253906 -18.703125 26.140625 -18.703125 C 25.972656 -17.703125 25.722656 -16.703125 25.390625 -15.703125 C 23.992188 -11.359375 21.625 -8.03125 18.28125 -5.71875 C 14.945312 -3.40625 11.582031 -2.773438 8.1875 -3.828125 C 4.789062 -4.890625 2.394531 -7.328125 1 -11.140625 C -0.382812 -14.960938 -0.382812 -19.070312 1 -23.46875 C 2.394531 -27.8125 4.757812 -31.132812 8.09375 -33.4375 C 11.4375 -35.75 14.804688 -36.378906 18.203125 -35.328125 C 20.484375 -34.597656 22.347656 -33.132812 23.796875 -30.9375 C 25.242188 -28.738281 26.082031 -26.191406 26.3125 -23.296875 L 26.5625 -23.296875 C 27.945312 -23.578125 28.890625 -23.773438 29.390625 -23.890625 C 29.835938 -23.941406 30.757812 -24.191406 32.15625 -24.640625 C 32.488281 -24.742188 32.710938 -24.828125 32.828125 -24.890625 C 33.160156 -25.003906 33.378906 -25.0625 33.484375 -25.0625 C 33.710938 -25.164062 33.828125 -25.21875 33.828125 -25.21875 C 33.878906 -25.21875 33.929688 -25.234375 33.984375 -25.265625 C 34.046875 -25.296875 34.101562 -25.3125 34.15625 -25.3125 C 34.207031 -25.363281 34.300781 -25.414062 34.4375 -25.46875 C 34.582031 -25.53125 34.6875 -25.5625 34.75 -25.5625 L 36 -26.0625 C 36.332031 -26.164062 36.691406 -26.300781 37.078125 -26.46875 C 37.523438 -26.695312 37.859375 -26.835938 38.078125 -26.890625 C 38.523438 -27.109375 38.832031 -27.25 39 -27.3125 C 39.050781 -27.363281 39.175781 -27.429688 39.375 -27.515625 C 39.570312 -27.597656 39.695312 -27.671875 39.75 -27.734375 L 40.5 -27.984375 Z M 20.71875 -26.890625 C 19.65625 -27.222656 18.457031 -26.890625 17.125 -25.890625 C 17.226562 -25.671875 17.445312 -25.394531 17.78125 -25.0625 C 18.226562 -24.613281 18.703125 -24.273438 19.203125 -24.046875 C 19.484375 -23.828125 19.789062 -23.691406 20.125 -23.640625 C 20.789062 -23.472656 21.15625 -23.390625 21.21875 -23.390625 C 21.882812 -23.222656 22.550781 -23.140625 23.21875 -23.140625 C 22.820312 -25.253906 21.988281 -26.503906 20.71875 -26.890625 Z M 14.53125 -7.515625 C 15.925781 -7.066406 17.398438 -7.632812 18.953125 -9.21875 C 20.515625 -10.8125 21.710938 -12.945312 22.546875 -15.625 C 22.773438 -16.289062 23 -17.179688 23.21875 -18.296875 C 22.101562 -18.179688 21.238281 -18.148438 20.625 -18.203125 C 20.519531 -18.203125 20.335938 -18.21875 20.078125 -18.25 C 19.828125 -18.28125 19.601562 -18.304688 19.40625 -18.328125 C 19.21875 -18.359375 19.039062 -18.398438 18.875 -18.453125 C 18.488281 -18.515625 17.90625 -18.65625 17.125 -18.875 C 16.175781 -19.15625 15.203125 -19.65625 14.203125 -20.375 C 13.867188 -20.601562 13.644531 -20.769531 13.53125 -20.875 C 13.414062 -20.601562 13.132812 -19.910156 12.6875 -18.796875 C 11.851562 -16.117188 11.617188 -13.679688 11.984375 -11.484375 C 12.347656 -9.285156 13.195312 -7.960938 14.53125 -7.515625 Z M 14.53125 -7.515625 "/></g></g></g><g fill="#363d46" fill-opacity="1"><g transform="translate(186.053706, 113.048885)"><g><path d="M 41.765625 -28.640625 L 42.765625 -26.890625 C 42.484375 -26.671875 42.09375 -26.394531 41.59375 -26.0625 C 41.53125 -26 41.414062 -25.925781 41.25 -25.84375 C 41.082031 -25.757812 40.972656 -25.691406 40.921875 -25.640625 L 40.171875 -25.140625 C 40.117188 -25.085938 39.992188 -25.003906 39.796875 -24.890625 C 39.597656 -24.773438 39.441406 -24.6875 39.328125 -24.625 C 39.222656 -24.570312 39.054688 -24.460938 38.828125 -24.296875 C 38.609375 -24.128906 38.441406 -24.019531 38.328125 -23.96875 C 37.722656 -23.6875 37.363281 -23.488281 37.25 -23.375 C 37.132812 -23.269531 36.9375 -23.144531 36.65625 -23 C 36.382812 -22.863281 36.191406 -22.769531 36.078125 -22.71875 C 36.023438 -22.65625 35.925781 -22.582031 35.78125 -22.5 C 35.644531 -22.414062 35.550781 -22.375 35.5 -22.375 C 35.269531 -22.269531 35.15625 -22.21875 35.15625 -22.21875 C 35.101562 -22.21875 35.046875 -22.1875 34.984375 -22.125 C 34.929688 -22.070312 34.878906 -22.046875 34.828125 -22.046875 C 34.597656 -21.992188 34.375 -21.882812 34.15625 -21.71875 C 33.9375 -21.65625 33.710938 -21.539062 33.484375 -21.375 C 32.878906 -21.101562 31.90625 -20.6875 30.5625 -20.125 C 29.726562 -19.789062 28.703125 -19.429688 27.484375 -19.046875 C 27.304688 -18.984375 27.066406 -18.910156 26.765625 -18.828125 C 26.460938 -18.742188 26.253906 -18.703125 26.140625 -18.703125 C 25.972656 -17.703125 25.722656 -16.703125 25.390625 -15.703125 C 23.992188 -11.359375 21.625 -8.03125 18.28125 -5.71875 C 14.945312 -3.40625 11.582031 -2.773438 8.1875 -3.828125 C 4.789062 -4.890625 2.394531 -7.328125 1 -11.140625 C -0.382812 -14.960938 -0.382812 -19.070312 1 -23.46875 C 2.394531 -27.8125 4.757812 -31.132812 8.09375 -33.4375 C 11.4375 -35.75 14.804688 -36.378906 18.203125 -35.328125 C 20.484375 -34.597656 22.347656 -33.132812 23.796875 -30.9375 C 25.242188 -28.738281 26.082031 -26.191406 26.3125 -23.296875 L 26.5625 -23.296875 C 27.945312 -23.578125 28.890625 -23.773438 29.390625 -23.890625 C 29.835938 -23.941406 30.757812 -24.191406 32.15625 -24.640625 C 32.488281 -24.742188 32.710938 -24.828125 32.828125 -24.890625 C 33.160156 -25.003906 33.378906 -25.0625 33.484375 -25.0625 C 33.710938 -25.164062 33.828125 -25.21875 33.828125 -25.21875 C 33.878906 -25.21875 33.929688 -25.234375 33.984375 -25.265625 C 34.046875 -25.296875 34.101562 -25.3125 34.15625 -25.3125 C 34.207031 -25.363281 34.300781 -25.414062 34.4375 -25.46875 C 34.582031 -25.53125 34.6875 -25.5625 34.75 -25.5625 L 36 -26.0625 C 36.332031 -26.164062 36.691406 -26.300781 37.078125 -26.46875 C 37.523438 -26.695312 37.859375 -26.835938 38.078125 -26.890625 C 38.523438 -27.109375 38.832031 -27.25 39 -27.3125 C 39.050781 -27.363281 39.175781 -27.429688 39.375 -27.515625 C 39.570312 -27.597656 39.695312 -27.671875 39.75 -27.734375 L 40.5 -27.984375 Z M 20.71875 -26.890625 C 19.65625 -27.222656 18.457031 -26.890625 17.125 -25.890625 C 17.226562 -25.671875 17.445312 -25.394531 17.78125 -25.0625 C 18.226562 -24.613281 18.703125 -24.273438 19.203125 -24.046875 C 19.484375 -23.828125 19.789062 -23.691406 20.125 -23.640625 C 20.789062 -23.472656 21.15625 -23.390625 21.21875 -23.390625 C 21.882812 -23.222656 22.550781 -23.140625 23.21875 -23.140625 C 22.820312 -25.253906 21.988281 -26.503906 20.71875 -26.890625 Z M 14.53125 -7.515625 C 15.925781 -7.066406 17.398438 -7.632812 18.953125 -9.21875 C 20.515625 -10.8125 21.710938 -12.945312 22.546875 -15.625 C 22.773438 -16.289062 23 -17.179688 23.21875 -18.296875 C 22.101562 -18.179688 21.238281 -18.148438 20.625 -18.203125 C 20.519531 -18.203125 20.335938 -18.21875 20.078125 -18.25 C 19.828125 -18.28125 19.601562 -18.304688 19.40625 -18.328125 C 19.21875 -18.359375 19.039062 -18.398438 18.875 -18.453125 C 18.488281 -18.515625 17.90625 -18.65625 17.125 -18.875 C 16.175781 -19.15625 15.203125 -19.65625 14.203125 -20.375 C 13.867188 -20.601562 13.644531 -20.769531 13.53125 -20.875 C 13.414062 -20.601562 13.132812 -19.910156 12.6875 -18.796875 C 11.851562 -16.117188 11.617188 -13.679688 11.984375 -11.484375 C 12.347656 -9.285156 13.195312 -7.960938 14.53125 -7.515625 Z M 14.53125 -7.515625 "/></g></g></g><g fill="#363d46" fill-opacity="1"><g transform="translate(218.620884, 113.048885)"><g><path d="M 41.765625 -28.0625 L 43.171875 -27.3125 C 43.117188 -26.976562 43.007812 -26.519531 42.84375 -25.9375 C 42.675781 -25.351562 42.300781 -24.222656 41.71875 -22.546875 C 41.132812 -20.878906 40.519531 -19.289062 39.875 -17.78125 C 39.238281 -16.28125 38.375 -14.609375 37.28125 -12.765625 C 36.195312 -10.929688 35.054688 -9.347656 33.859375 -8.015625 C 32.660156 -6.679688 31.238281 -5.550781 29.59375 -4.625 C 27.957031 -3.707031 26.25 -3.25 24.46875 -3.25 C 22.800781 -3.144531 21.296875 -3.609375 19.953125 -4.640625 C 18.617188 -5.671875 17.703125 -6.738281 17.203125 -7.84375 L 16.53125 -9.4375 C 14.644531 -2.976562 11.390625 0.164062 6.765625 0 C 4.984375 0.0507812 3.546875 -0.988281 2.453125 -3.125 C 1.367188 -5.269531 0.6875 -8.097656 0.40625 -11.609375 C 0.132812 -15.117188 0 -19.054688 0 -23.421875 C 0 -27.796875 0.175781 -32.207031 0.53125 -36.65625 C 0.894531 -41.113281 1.203125 -45.390625 1.453125 -49.484375 C 1.710938 -53.578125 1.9375 -57.039062 2.125 -59.875 C 2.320312 -62.71875 2.253906 -64.722656 1.921875 -65.890625 C 2.140625 -65.953125 2.414062 -66.007812 2.75 -66.0625 C 3.082031 -66.113281 3.738281 -66.15625 4.71875 -66.1875 C 5.695312 -66.21875 6.613281 -66.175781 7.46875 -66.0625 C 8.332031 -65.945312 9.28125 -65.664062 10.3125 -65.21875 C 11.34375 -64.78125 12.21875 -64.179688 12.9375 -63.421875 C 13.664062 -62.671875 14.238281 -61.597656 14.65625 -60.203125 C 15.070312 -58.816406 15.222656 -57.207031 15.109375 -55.375 C 14.171875 -43.007812 13.585938 -32.648438 13.359375 -24.296875 C 15.472656 -34.265625 18.535156 -39.25 22.546875 -39.25 C 25.835938 -39.25 27.757812 -37.632812 28.3125 -34.40625 C 28.976562 -30.625 27.722656 -26.3125 24.546875 -21.46875 C 23.046875 -19.238281 21.238281 -17.175781 19.125 -15.28125 C 19.125 -14.726562 19.164062 -14.128906 19.25 -13.484375 C 19.332031 -12.847656 19.507812 -11.859375 19.78125 -10.515625 C 20.0625 -9.179688 20.660156 -8.097656 21.578125 -7.265625 C 22.503906 -6.429688 23.632812 -6.015625 24.96875 -6.015625 C 27.03125 -6.015625 29.003906 -6.765625 30.890625 -8.265625 C 32.785156 -9.765625 34.359375 -11.597656 35.609375 -13.765625 C 36.867188 -15.941406 37.984375 -18.113281 38.953125 -20.28125 C 39.929688 -22.457031 40.644531 -24.300781 41.09375 -25.8125 Z M 22.46875 -31.984375 C 21.46875 -31.984375 20.742188 -31.132812 20.296875 -29.4375 C 19.847656 -27.738281 19.375 -25.132812 18.875 -21.625 C 18.757812 -20.738281 18.675781 -20.070312 18.625 -19.625 C 22.019531 -24.1875 23.773438 -27.722656 23.890625 -30.234375 C 23.890625 -31.398438 23.414062 -31.984375 22.46875 -31.984375 Z M 22.46875 -31.984375 "/></g></g></g><g fill="#363d46" fill-opacity="1"><g transform="translate(253.27569, 113.048885)"><g><path d="M 26.140625 -30.984375 C 29.148438 -30.597656 30.488281 -28.367188 30.15625 -24.296875 C 29.8125 -19.734375 27.722656 -14.972656 23.890625 -10.015625 C 19.992188 -4.953125 15.566406 -1.585938 10.609375 0.078125 C 9.441406 0.578125 8.1875 0.828125 6.84375 0.828125 C 5.0625 0.890625 3.628906 -0.148438 2.546875 -2.296875 C 1.460938 -4.441406 0.765625 -7.265625 0.453125 -10.765625 C 0.148438 -14.273438 0 -18.210938 0 -22.578125 C 0 -26.953125 0.191406 -31.367188 0.578125 -35.828125 C 0.972656 -40.285156 1.296875 -44.554688 1.546875 -48.640625 C 1.796875 -52.734375 2.015625 -56.203125 2.203125 -59.046875 C 2.398438 -61.890625 2.332031 -63.894531 2 -65.0625 C 2.226562 -65.113281 2.507812 -65.164062 2.84375 -65.21875 C 3.175781 -65.28125 3.828125 -65.320312 4.796875 -65.34375 C 5.773438 -65.375 6.695312 -65.332031 7.5625 -65.21875 C 8.425781 -65.113281 9.367188 -64.835938 10.390625 -64.390625 C 11.421875 -63.941406 12.296875 -63.34375 13.015625 -62.59375 C 13.742188 -61.84375 14.316406 -60.769531 14.734375 -59.375 C 15.148438 -57.988281 15.273438 -56.347656 15.109375 -54.453125 C 13.890625 -37.972656 13.304688 -25.390625 13.359375 -16.703125 C 14.253906 -19.265625 15.210938 -21.546875 16.234375 -23.546875 C 17.265625 -25.554688 18.671875 -27.367188 20.453125 -28.984375 C 22.242188 -30.597656 24.140625 -31.265625 26.140625 -30.984375 Z M 14.453125 -5.765625 C 18.117188 -8.328125 21.125 -12.390625 23.46875 -17.953125 C 25.363281 -22.515625 25.804688 -25.601562 24.796875 -27.21875 C 24.523438 -27.664062 24.140625 -27.921875 23.640625 -27.984375 C 22.128906 -28.085938 20.609375 -26.285156 19.078125 -22.578125 C 17.546875 -18.878906 16.394531 -15.140625 15.625 -11.359375 Z M 14.453125 -5.765625 "/></g></g></g><g fill="#363d46" fill-opacity="1"><g transform="translate(286.009876, 113.048885)"><g><path d="M 47.515625 -27.140625 L 50.28125 -27.140625 C 50.050781 -26.359375 49.710938 -25.34375 49.265625 -24.09375 C 48.828125 -22.84375 47.828125 -20.613281 46.265625 -17.40625 C 44.703125 -14.207031 43.03125 -11.367188 41.25 -8.890625 C 39.46875 -6.410156 37.101562 -4.171875 34.15625 -2.171875 C 31.207031 -0.171875 28.144531 0.828125 24.96875 0.828125 C 22.90625 0.828125 21.300781 0.09375 20.15625 -1.375 C 19.019531 -2.851562 18.335938 -4.617188 18.109375 -6.671875 C 17.890625 -8.734375 17.867188 -11.269531 18.046875 -14.28125 C 14.140625 -10.5 10.015625 -8.96875 5.671875 -9.6875 C 2.953125 -10.1875 1.203125 -11.550781 0.421875 -13.78125 C -0.359375 -16.007812 -0.179688 -18.398438 0.953125 -20.953125 C 2.097656 -23.515625 3.867188 -25.550781 6.265625 -27.0625 C 10.210938 -29.507812 14.691406 -30.316406 19.703125 -29.484375 C 19.867188 -32.046875 19.816406 -33.910156 19.546875 -35.078125 C 19.765625 -35.128906 20.039062 -35.179688 20.375 -35.234375 C 20.707031 -35.296875 21.359375 -35.335938 22.328125 -35.359375 C 23.304688 -35.390625 24.226562 -35.347656 25.09375 -35.234375 C 25.957031 -35.128906 26.90625 -34.851562 27.9375 -34.40625 C 28.96875 -33.957031 29.84375 -33.359375 30.5625 -32.609375 C 31.289062 -31.859375 31.863281 -30.785156 32.28125 -29.390625 C 32.695312 -28.003906 32.820312 -26.363281 32.65625 -24.46875 C 31.820312 -12.882812 32.460938 -7.066406 34.578125 -7.015625 C 35.410156 -6.960938 36.441406 -7.628906 37.671875 -9.015625 C 39.890625 -11.523438 41.820312 -14.296875 43.46875 -17.328125 C 45.113281 -20.359375 46.210938 -22.765625 46.765625 -24.546875 Z M 8.9375 -18.953125 C 8.820312 -16.117188 10.019531 -15.117188 12.53125 -15.953125 C 14.53125 -16.671875 16.585938 -18.175781 18.703125 -20.46875 C 18.929688 -22.582031 19.128906 -24.164062 19.296875 -25.21875 C 18.398438 -25.21875 17.492188 -25.144531 16.578125 -25 C 15.660156 -24.863281 14.570312 -24.613281 13.3125 -24.25 C 12.0625 -23.894531 11.03125 -23.257812 10.21875 -22.34375 C 9.414062 -21.425781 8.988281 -20.296875 8.9375 -18.953125 Z M 8.9375 -18.953125 "/></g></g></g><g fill="#363d46" fill-opacity="1"><g transform="translate(329.265767, 113.048885)"><g><path d="M 35.5 -23.046875 L 35.828125 -21.046875 C 35.492188 -21.210938 35.019531 -21.445312 34.40625 -21.75 C 33.789062 -22.0625 32.632812 -22.519531 30.9375 -23.125 C 29.238281 -23.738281 27.640625 -24.171875 26.140625 -24.421875 C 24.640625 -24.671875 23.007812 -24.6875 21.25 -24.46875 C 19.5 -24.25 18.066406 -23.632812 16.953125 -22.625 C 17.566406 -21.6875 18.441406 -20.394531 19.578125 -18.75 C 20.722656 -17.101562 21.644531 -15.765625 22.34375 -14.734375 C 23.039062 -13.710938 23.875 -12.4375 24.84375 -10.90625 C 25.820312 -9.375 26.5625 -8.09375 27.0625 -7.0625 C 27.5625 -6.03125 28.070312 -4.859375 28.59375 -3.546875 C 29.125 -2.242188 29.40625 -1.101562 29.4375 -0.125 C 29.46875 0.851562 29.382812 1.84375 29.1875 2.84375 C 28.988281 3.84375 28.539062 4.757812 27.84375 5.59375 C 27.15625 6.425781 26.253906 7.175781 25.140625 7.84375 C 21.179688 9.738281 17.835938 10.378906 15.109375 9.765625 L 15.03125 9.765625 C 14.863281 9.765625 14.753906 9.738281 14.703125 9.6875 C 13.972656 9.570312 13.273438 9.378906 12.609375 9.109375 C 11.828125 8.878906 10.851562 8.40625 9.6875 7.6875 C 8.40625 6.851562 7.347656 5.90625 6.515625 4.84375 C 5.453125 3.507812 4.671875 2.003906 4.171875 0.328125 C 4.171875 0.222656 4.15625 0.101562 4.125 -0.03125 C 4.101562 -0.175781 4.09375 -0.273438 4.09375 -0.328125 L 4.015625 -0.5 L 4.015625 -0.671875 L 3.921875 -1 L 3.84375 -1.25 L 3.84375 -1.59375 C 3.789062 -1.757812 3.765625 -1.976562 3.765625 -2.25 C 3.585938 -3.082031 3.5 -3.972656 3.5 -4.921875 C 3.5 -6.929688 3.722656 -8.796875 4.171875 -10.515625 C 4.671875 -12.242188 5.394531 -14 6.34375 -15.78125 C 6.34375 -15.84375 6.375 -15.875 6.4375 -15.875 L 6.515625 -16.03125 C 5.617188 -17.257812 4.703125 -18.597656 3.765625 -20.046875 C 2.203125 -22.492188 1.128906 -24.757812 0.546875 -26.84375 C -0.0351562 -28.9375 -0.175781 -30.675781 0.125 -32.0625 C 0.425781 -33.457031 0.953125 -34.710938 1.703125 -35.828125 C 2.460938 -36.941406 3.367188 -37.816406 4.421875 -38.453125 C 5.484375 -39.097656 6.472656 -39.640625 7.390625 -40.078125 C 8.304688 -40.523438 9.097656 -40.804688 9.765625 -40.921875 L 10.78125 -41.171875 C 9.332031 -37.660156 10.804688 -32.375 15.203125 -25.3125 C 16.921875 -26.25 18.796875 -26.816406 20.828125 -27.015625 C 22.867188 -27.210938 24.707031 -27.113281 26.34375 -26.71875 C 27.988281 -26.332031 29.519531 -25.859375 30.9375 -25.296875 C 32.363281 -24.742188 33.460938 -24.21875 34.234375 -23.71875 Z M 9.765625 2.171875 C 10.265625 2.722656 11.019531 3.335938 12.03125 4.015625 L 12.53125 4.265625 C 14.414062 4.929688 15.582031 4.539062 16.03125 3.09375 C 16.476562 1.582031 16.410156 -0.046875 15.828125 -1.796875 C 15.242188 -3.546875 14.503906 -5.085938 13.609375 -6.421875 C 12.722656 -7.765625 11.359375 -9.660156 9.515625 -12.109375 C 9.242188 -12.441406 9.050781 -12.691406 8.9375 -12.859375 C 8.488281 -11.910156 8.125 -10.828125 7.84375 -9.609375 C 7.507812 -7.992188 7.375 -6.460938 7.4375 -5.015625 C 7.488281 -4.566406 7.570312 -3.84375 7.6875 -2.84375 C 7.738281 -2.675781 7.789062 -2.453125 7.84375 -2.171875 C 7.90625 -1.890625 7.960938 -1.632812 8.015625 -1.40625 C 8.066406 -1.1875 8.125 -0.992188 8.1875 -0.828125 C 8.46875 0.222656 8.992188 1.222656 9.765625 2.171875 Z M 9.765625 2.171875 "/></g></g></g><g fill="#363d46" fill-opacity="1"><g transform="translate(359.494784, 113.048885)"><g><path d="M 36.65625 -25.46875 L 38.328125 -24.140625 C 33.710938 -15.503906 27.894531 -8.90625 20.875 -4.34375 C 14.914062 -0.445312 9.878906 0.859375 5.765625 -0.421875 C 1.472656 -1.804688 -0.421875 -5.84375 0.078125 -12.53125 C 0.140625 -13.414062 0.253906 -14.332031 0.421875 -15.28125 C 0.921875 -18.125 1.820312 -20.570312 3.125 -22.625 C 4.4375 -24.6875 5.882812 -26.234375 7.46875 -27.265625 C 9.0625 -28.296875 10.757812 -29.046875 12.5625 -29.515625 C 14.375 -29.992188 15.972656 -30.21875 17.359375 -30.1875 C 18.753906 -30.164062 19.925781 -30.015625 20.875 -29.734375 C 22.101562 -29.335938 23.109375 -28.648438 23.890625 -27.671875 C 24.671875 -26.703125 25.113281 -25.4375 25.21875 -23.875 C 25.332031 -22.320312 24.773438 -20.570312 23.546875 -18.625 C 21.597656 -15.445312 17.976562 -13.941406 12.6875 -14.109375 C 12.082031 -8.597656 13.28125 -6.066406 16.28125 -6.515625 C 19.570312 -7.015625 24.164062 -10.46875 30.0625 -16.875 C 33.457031 -20.601562 35.65625 -23.46875 36.65625 -25.46875 Z M 19.375 -25.140625 C 19.039062 -25.140625 18.734375 -25.140625 18.453125 -25.140625 C 18.179688 -25.140625 17.75 -24.984375 17.15625 -24.671875 C 16.570312 -24.367188 16.054688 -23.9375 15.609375 -23.375 C 15.171875 -22.820312 14.703125 -21.921875 14.203125 -20.671875 C 13.703125 -19.421875 13.3125 -17.929688 13.03125 -16.203125 C 17.144531 -15.921875 19.925781 -17.253906 21.375 -20.203125 C 21.601562 -20.710938 21.769531 -21.3125 21.875 -22 C 21.988281 -22.695312 21.847656 -23.394531 21.453125 -24.09375 C 21.066406 -24.789062 20.375 -25.140625 19.375 -25.140625 Z M 19.375 -25.140625 "/></g></g></g></svg>