<svg xmlns="http://www.w3.org/2000/svg" xmlns:xlink="http://www.w3.org/1999/xlink" width="1080" zoomAndPan="magnify" viewBox="0 0 810 809.999993" height="1080" preserveAspectRatio="xMidYMid meet" version="1.0"><defs><g/><clipPath id="50e9de2d95"><path d="M 177 198.238281 L 348 198.238281 L 348 354.988281 L 177 354.988281 Z M 177 198.238281 " clip-rule="nonzero"/></clipPath></defs><g clip-path="url(#50e9de2d95)"><path fill="#eebd79" d="M 177.964844 265.167969 C 180.835938 280.882812 193.757812 293.726562 209.445312 296.332031 C 211.042969 296.597656 211.390625 297.128906 211.390625 298.644531 C 211.335938 315.824219 211.335938 323.324219 211.335938 335.074219 C 223.886719 331.246094 242.183594 328.828125 262.578125 328.828125 C 282.949219 328.828125 301.242188 331.246094 313.792969 335.074219 C 313.792969 323.324219 313.820312 315.824219 313.765625 298.644531 C 313.765625 297.128906 314.113281 296.597656 315.707031 296.332031 C 331.398438 293.726562 344.292969 280.882812 347.191406 265.167969 C 351.019531 244.160156 337.988281 224.324219 317.144531 219.535156 C 310.363281 217.96875 303.636719 218.339844 296.960938 220.386719 C 296.90625 220.414062 296.828125 220.414062 296.773438 220.414062 C 294.25 216.984375 292.121094 213.605469 289.488281 210.707031 C 282.46875 202.945312 273.558594 198.660156 263.109375 198.238281 L 262.019531 198.238281 C 251.597656 198.660156 242.6875 202.941406 235.667969 210.707031 C 233.007812 213.605469 230.90625 216.984375 228.378906 220.414062 L 228.40625 220.441406 C 228.40625 220.441406 228.378906 220.441406 228.355469 220.441406 L 228.355469 220.414062 C 228.300781 220.414062 228.222656 220.414062 228.167969 220.386719 C 221.519531 218.339844 214.792969 217.96875 207.984375 219.535156 C 187.140625 224.324219 174.109375 244.160156 177.964844 265.167969 Z M 262.578125 336.804688 C 282.949219 336.804688 301.242188 339.222656 313.792969 343.054688 L 313.792969 355.128906 C 301.242188 351.296875 282.949219 348.878906 262.578125 348.878906 C 242.179688 348.878906 223.886719 351.296875 211.335938 355.128906 L 211.335938 343.054688 C 223.886719 339.226562 242.179688 336.804688 262.578125 336.804688 Z M 262.578125 336.804688 " fill-opacity="1" fill-rule="nonzero"/></g><g fill="#c18b7f" fill-opacity="1"><g transform="translate(94.124999, 449.624997)"><g><path d="M 52.25 1.5 C 43.332031 1.5 35.269531 -0.4375 28.0625 -4.3125 C 20.851562 -8.1875 15.1875 -13.5625 11.0625 -20.4375 C 6.9375 -27.3125 4.875 -35.082031 4.875 -43.75 C 4.875 -52.414062 6.9375 -60.1875 11.0625 -67.0625 C 15.1875 -73.9375 20.851562 -79.3125 28.0625 -83.1875 C 35.269531 -87.0625 43.375 -89 52.375 -89 C 59.957031 -89 66.8125 -87.664062 72.9375 -85 C 79.0625 -82.332031 84.207031 -78.5 88.375 -73.5 L 75.375 -61.5 C 69.457031 -68.332031 62.125 -71.75 53.375 -71.75 C 47.957031 -71.75 43.125 -70.5625 38.875 -68.1875 C 34.625 -65.8125 31.3125 -62.5 28.9375 -58.25 C 26.5625 -54 25.375 -49.164062 25.375 -43.75 C 25.375 -38.332031 26.5625 -33.5 28.9375 -29.25 C 31.3125 -25 34.625 -21.6875 38.875 -19.3125 C 43.125 -16.9375 47.957031 -15.75 53.375 -15.75 C 62.125 -15.75 69.457031 -19.207031 75.375 -26.125 L 88.375 -14.125 C 84.207031 -9.039062 79.039062 -5.164062 72.875 -2.5 C 66.707031 0.164062 59.832031 1.5 52.25 1.5 Z M 52.25 1.5 "/></g></g></g><g fill="#c18b7f" fill-opacity="1"><g transform="translate(185.744276, 449.624997)"><g><path d="M 41 1 C 33.914062 1 27.5625 -0.476562 21.9375 -3.4375 C 16.3125 -6.394531 11.914062 -10.5 8.75 -15.75 C 5.582031 -21 4 -26.957031 4 -33.625 C 4 -40.289062 5.582031 -46.25 8.75 -51.5 C 11.914062 -56.75 16.3125 -60.851562 21.9375 -63.8125 C 27.5625 -66.769531 33.914062 -68.25 41 -68.25 C 48.082031 -68.25 54.414062 -66.769531 60 -63.8125 C 65.582031 -60.851562 69.957031 -56.75 73.125 -51.5 C 76.289062 -46.25 77.875 -40.289062 77.875 -33.625 C 77.875 -26.957031 76.289062 -21 73.125 -15.75 C 69.957031 -10.5 65.582031 -6.394531 60 -3.4375 C 54.414062 -0.476562 48.082031 1 41 1 Z M 41 -15 C 46 -15 50.101562 -16.6875 53.3125 -20.0625 C 56.519531 -23.4375 58.125 -27.957031 58.125 -33.625 C 58.125 -39.289062 56.519531 -43.8125 53.3125 -47.1875 C 50.101562 -50.5625 46 -52.25 41 -52.25 C 36 -52.25 31.875 -50.5625 28.625 -47.1875 C 25.375 -43.8125 23.75 -39.289062 23.75 -33.625 C 23.75 -27.957031 25.375 -23.4375 28.625 -20.0625 C 31.875 -16.6875 36 -15 41 -15 Z M 41 -15 "/></g></g></g><g fill="#c18b7f" fill-opacity="1"><g transform="translate(267.61416, 449.624997)"><g><path d="M 41 1 C 33.914062 1 27.5625 -0.476562 21.9375 -3.4375 C 16.3125 -6.394531 11.914062 -10.5 8.75 -15.75 C 5.582031 -21 4 -26.957031 4 -33.625 C 4 -40.289062 5.582031 -46.25 8.75 -51.5 C 11.914062 -56.75 16.3125 -60.851562 21.9375 -63.8125 C 27.5625 -66.769531 33.914062 -68.25 41 -68.25 C 48.082031 -68.25 54.414062 -66.769531 60 -63.8125 C 65.582031 -60.851562 69.957031 -56.75 73.125 -51.5 C 76.289062 -46.25 77.875 -40.289062 77.875 -33.625 C 77.875 -26.957031 76.289062 -21 73.125 -15.75 C 69.957031 -10.5 65.582031 -6.394531 60 -3.4375 C 54.414062 -0.476562 48.082031 1 41 1 Z M 41 -15 C 46 -15 50.101562 -16.6875 53.3125 -20.0625 C 56.519531 -23.4375 58.125 -27.957031 58.125 -33.625 C 58.125 -39.289062 56.519531 -43.8125 53.3125 -47.1875 C 50.101562 -50.5625 46 -52.25 41 -52.25 C 36 -52.25 31.875 -50.5625 28.625 -47.1875 C 25.375 -43.8125 23.75 -39.289062 23.75 -33.625 C 23.75 -27.957031 25.375 -23.4375 28.625 -20.0625 C 31.875 -16.6875 36 -15 41 -15 Z M 41 -15 "/></g></g></g><g fill="#c18b7f" fill-opacity="1"><g transform="translate(349.484055, 449.624997)"><g><path d="M 37.875 -26.375 L 28.5 -17.125 L 28.5 0 L 9 0 L 9 -92.75 L 28.5 -92.75 L 28.5 -40.25 L 57 -67.25 L 80.25 -67.25 L 52.25 -38.75 L 82.75 0 L 59.125 0 Z M 37.875 -26.375 "/></g></g></g><g fill="#c18b7f" fill-opacity="1"><g transform="translate(431.978902, 449.624997)"><g><path d="M 48.75 -68.25 C 55 -68.25 60.6875 -66.8125 65.8125 -63.9375 C 70.9375 -61.0625 74.957031 -57.019531 77.875 -51.8125 C 80.789062 -46.601562 82.25 -40.539062 82.25 -33.625 C 82.25 -26.707031 80.789062 -20.644531 77.875 -15.4375 C 74.957031 -10.226562 70.9375 -6.1875 65.8125 -3.3125 C 60.6875 -0.4375 55 1 48.75 1 C 39.5 1 32.457031 -1.914062 27.625 -7.75 L 27.625 0 L 9 0 L 9 -92.75 L 28.5 -92.75 L 28.5 -60.125 C 33.414062 -65.539062 40.164062 -68.25 48.75 -68.25 Z M 45.375 -15 C 50.375 -15 54.476562 -16.6875 57.6875 -20.0625 C 60.894531 -23.4375 62.5 -27.957031 62.5 -33.625 C 62.5 -39.289062 60.894531 -43.8125 57.6875 -47.1875 C 54.476562 -50.5625 50.375 -52.25 45.375 -52.25 C 40.375 -52.25 36.269531 -50.5625 33.0625 -47.1875 C 29.851562 -43.8125 28.25 -39.289062 28.25 -33.625 C 28.25 -27.957031 29.851562 -23.4375 33.0625 -20.0625 C 36.269531 -16.6875 40.375 -15 45.375 -15 Z M 45.375 -15 "/></g></g></g><g fill="#c18b7f" fill-opacity="1"><g transform="translate(518.223518, 449.624997)"><g><path d="M 36.125 -68.25 C 46.539062 -68.25 54.539062 -65.769531 60.125 -60.8125 C 65.707031 -55.851562 68.5 -48.375 68.5 -38.375 L 68.5 0 L 50.25 0 L 50.25 -8.375 C 46.582031 -2.125 39.75 1 29.75 1 C 24.582031 1 20.101562 0.125 16.3125 -1.625 C 12.519531 -3.375 9.625 -5.789062 7.625 -8.875 C 5.625 -11.957031 4.625 -15.457031 4.625 -19.375 C 4.625 -25.625 6.976562 -30.539062 11.6875 -34.125 C 16.394531 -37.707031 23.664062 -39.5 33.5 -39.5 L 49 -39.5 C 49 -43.75 47.707031 -47.019531 45.125 -49.3125 C 42.539062 -51.601562 38.664062 -52.75 33.5 -52.75 C 29.914062 -52.75 26.394531 -52.1875 22.9375 -51.0625 C 19.476562 -49.9375 16.539062 -48.414062 14.125 -46.5 L 7.125 -60.125 C 10.789062 -62.707031 15.1875 -64.707031 20.3125 -66.125 C 25.4375 -67.539062 30.707031 -68.25 36.125 -68.25 Z M 34.625 -12.125 C 37.957031 -12.125 40.914062 -12.894531 43.5 -14.4375 C 46.082031 -15.976562 47.914062 -18.25 49 -21.25 L 49 -28.125 L 35.625 -28.125 C 27.625 -28.125 23.625 -25.5 23.625 -20.25 C 23.625 -17.75 24.601562 -15.769531 26.5625 -14.3125 C 28.519531 -12.851562 31.207031 -12.125 34.625 -12.125 Z M 34.625 -12.125 "/></g></g></g><g fill="#c18b7f" fill-opacity="1"><g transform="translate(595.343692, 449.624997)"><g><path d="M 31.625 1 C 26.039062 1 20.582031 0.3125 15.25 -1.0625 C 9.914062 -2.4375 5.664062 -4.164062 2.5 -6.25 L 9 -20.25 C 12 -18.332031 15.625 -16.769531 19.875 -15.5625 C 24.125 -14.351562 28.289062 -13.75 32.375 -13.75 C 40.625 -13.75 44.75 -15.789062 44.75 -19.875 C 44.75 -21.789062 43.625 -23.164062 41.375 -24 C 39.125 -24.832031 35.664062 -25.539062 31 -26.125 C 25.5 -26.957031 20.957031 -27.914062 17.375 -29 C 13.789062 -30.082031 10.6875 -32 8.0625 -34.75 C 5.4375 -37.5 4.125 -41.414062 4.125 -46.5 C 4.125 -50.75 5.351562 -54.519531 7.8125 -57.8125 C 10.269531 -61.101562 13.851562 -63.664062 18.5625 -65.5 C 23.269531 -67.332031 28.832031 -68.25 35.25 -68.25 C 40 -68.25 44.726562 -67.726562 49.4375 -66.6875 C 54.144531 -65.644531 58.039062 -64.207031 61.125 -62.375 L 54.625 -48.5 C 48.707031 -51.832031 42.25 -53.5 35.25 -53.5 C 31.082031 -53.5 27.957031 -52.914062 25.875 -51.75 C 23.789062 -50.582031 22.75 -49.082031 22.75 -47.25 C 22.75 -45.164062 23.875 -43.707031 26.125 -42.875 C 28.375 -42.039062 31.957031 -41.25 36.875 -40.5 C 42.375 -39.582031 46.875 -38.601562 50.375 -37.5625 C 53.875 -36.519531 56.914062 -34.625 59.5 -31.875 C 62.082031 -29.125 63.375 -25.289062 63.375 -20.375 C 63.375 -16.207031 62.125 -12.5 59.625 -9.25 C 57.125 -6 53.476562 -3.476562 48.6875 -1.6875 C 43.894531 0.101562 38.207031 1 31.625 1 Z M 31.625 1 "/></g></g></g><g fill="#c18b7f" fill-opacity="1"><g transform="translate(661.714569, 449.624997)"><g><path d="M 74.875 -33.375 C 74.875 -33.125 74.75 -31.375 74.5 -28.125 L 23.625 -28.125 C 24.539062 -23.957031 26.707031 -20.664062 30.125 -18.25 C 33.539062 -15.832031 37.789062 -14.625 42.875 -14.625 C 46.375 -14.625 49.476562 -15.144531 52.1875 -16.1875 C 54.894531 -17.226562 57.414062 -18.875 59.75 -21.125 L 70.125 -9.875 C 63.789062 -2.625 54.539062 1 42.375 1 C 34.789062 1 28.082031 -0.476562 22.25 -3.4375 C 16.414062 -6.394531 11.914062 -10.5 8.75 -15.75 C 5.582031 -21 4 -26.957031 4 -33.625 C 4 -40.207031 5.5625 -46.144531 8.6875 -51.4375 C 11.8125 -56.726562 16.101562 -60.851562 21.5625 -63.8125 C 27.019531 -66.769531 33.125 -68.25 39.875 -68.25 C 46.457031 -68.25 52.414062 -66.832031 57.75 -64 C 63.082031 -61.164062 67.269531 -57.101562 70.3125 -51.8125 C 73.351562 -46.519531 74.875 -40.375 74.875 -33.375 Z M 40 -53.5 C 35.582031 -53.5 31.875 -52.25 28.875 -49.75 C 25.875 -47.25 24.039062 -43.832031 23.375 -39.5 L 56.5 -39.5 C 55.832031 -43.75 54 -47.144531 51 -49.6875 C 48 -52.226562 44.332031 -53.5 40 -53.5 Z M 40 -53.5 "/></g></g></g></svg>