<svg xmlns="http://www.w3.org/2000/svg" xmlns:xlink="http://www.w3.org/1999/xlink" width="648" zoomAndPan="magnify" viewBox="0 0 486 224.249992" height="299" preserveAspectRatio="xMidYMid meet" version="1.0"><defs><g/><clipPath id="684d9f3d0d"><path d="M 120.703125 0 L 206.667969 0 L 206.667969 78.488281 L 120.703125 78.488281 Z M 120.703125 0 " clip-rule="nonzero"/></clipPath><clipPath id="add8046165"><path d="M 122.117188 1.292969 L 205.089844 1.292969 L 205.089844 77.535156 L 122.117188 77.535156 Z M 122.117188 1.292969 " clip-rule="nonzero"/></clipPath></defs><g clip-path="url(#684d9f3d0d)"><path fill="#4e4f50" d="M 121.292969 33.574219 C 122.730469 41.457031 129.214844 47.898438 137.082031 49.207031 C 137.882812 49.339844 138.058594 49.605469 138.058594 50.367188 C 138.03125 58.984375 138.03125 62.746094 138.03125 68.640625 C 144.328125 66.71875 153.503906 65.503906 163.734375 65.503906 C 173.953125 65.503906 183.128906 66.71875 189.425781 68.640625 C 189.425781 62.746094 189.4375 58.984375 189.410156 50.367188 C 189.410156 49.605469 189.585938 49.339844 190.382812 49.207031 C 198.253906 47.898438 204.722656 41.457031 206.179688 33.574219 C 208.097656 23.035156 201.5625 13.085938 191.105469 10.683594 C 187.703125 9.898438 184.328125 10.085938 180.980469 11.109375 C 180.953125 11.125 180.914062 11.125 180.886719 11.125 C 179.621094 9.402344 178.554688 7.710938 177.234375 6.257812 C 173.710938 2.363281 169.242188 0.214844 164 0 L 163.453125 0 C 158.226562 0.214844 153.757812 2.359375 150.234375 6.257812 C 148.902344 7.710938 147.847656 9.402344 146.582031 11.125 L 146.59375 11.136719 C 146.59375 11.136719 146.582031 11.136719 146.566406 11.136719 L 146.566406 11.125 C 146.539062 11.125 146.5 11.125 146.472656 11.109375 C 143.140625 10.085938 139.765625 9.898438 136.351562 10.683594 C 125.894531 13.085938 119.355469 23.035156 121.292969 33.574219 Z M 163.734375 69.507812 C 173.953125 69.507812 183.128906 70.71875 189.425781 72.640625 L 189.425781 78.699219 C 183.128906 76.777344 173.953125 75.5625 163.734375 75.5625 C 153.503906 75.5625 144.328125 76.777344 138.03125 78.699219 L 138.03125 72.640625 C 144.328125 70.722656 153.503906 69.507812 163.734375 69.507812 Z M 163.734375 69.507812 " fill-opacity="1" fill-rule="nonzero"/></g><g clip-path="url(#add8046165)"><path fill="#89b9d0" d="M 122.683594 33.765625 C 124.078125 41.386719 130.347656 47.621094 137.957031 48.882812 C 138.730469 49.011719 138.898438 49.269531 138.898438 50.007812 C 138.875 58.339844 138.875 61.980469 138.875 67.679688 C 144.964844 65.824219 153.839844 64.648438 163.734375 64.648438 C 173.617188 64.648438 182.492188 65.820312 188.582031 67.679688 C 188.582031 61.980469 188.59375 58.339844 188.570312 50.007812 C 188.570312 49.269531 188.738281 49.011719 189.511719 48.882812 C 197.121094 47.621094 203.378906 41.386719 204.785156 33.765625 C 206.644531 23.574219 200.320312 13.949219 190.207031 11.625 C 186.917969 10.867188 183.652344 11.046875 180.414062 12.039062 C 180.390625 12.050781 180.351562 12.050781 180.324219 12.050781 C 179.097656 10.386719 178.066406 8.75 176.789062 7.34375 C 173.382812 3.578125 169.0625 1.5 163.992188 1.292969 L 163.460938 1.292969 C 158.40625 1.5 154.082031 3.574219 150.679688 7.34375 C 149.386719 8.75 148.367188 10.386719 147.144531 12.050781 L 147.15625 12.066406 C 147.15625 12.066406 147.144531 12.066406 147.128906 12.066406 L 147.128906 12.050781 C 147.105469 12.050781 147.066406 12.050781 147.039062 12.039062 C 143.816406 11.046875 140.550781 10.867188 137.25 11.625 C 127.132812 13.949219 120.8125 23.574219 122.683594 33.765625 Z M 163.734375 68.519531 C 173.617188 68.519531 182.492188 69.691406 188.582031 71.550781 L 188.582031 77.410156 C 182.492188 75.550781 173.617188 74.375 163.734375 74.375 C 153.839844 74.375 144.964844 75.550781 138.875 77.410156 L 138.875 71.550781 C 144.964844 69.695312 153.839844 68.519531 163.734375 68.519531 Z M 163.734375 68.519531 " fill-opacity="1" fill-rule="nonzero"/></g><g fill="#4e4f50" fill-opacity="1"><g transform="translate(63.534874, 147.013676)"><g><path d="M 37.8125 -82.734375 C 37.070312 -86.460938 36.140625 -88.765625 35.015625 -89.640625 C 33.898438 -90.523438 32.738281 -90.429688 31.53125 -89.359375 C 30.320312 -88.296875 29.113281 -86.765625 27.90625 -84.765625 C 26.695312 -82.765625 25.582031 -80.695312 24.5625 -78.5625 C 23.445312 -76.226562 22.28125 -73.0625 21.0625 -69.0625 C 19.851562 -65.0625 18.710938 -60.664062 17.640625 -55.875 C 16.578125 -51.09375 15.765625 -46.164062 15.203125 -41.09375 C 14.648438 -36.019531 14.421875 -31.15625 14.515625 -26.5 C 14.609375 -21.851562 15.257812 -17.765625 16.46875 -14.234375 C 16.832031 -13.117188 17.382812 -11.835938 18.125 -10.390625 C 18.875 -8.953125 19.738281 -7.695312 20.71875 -6.625 C 21.695312 -5.550781 22.8125 -5.015625 24.0625 -5.015625 C 25.320312 -5.015625 26.601562 -5.804688 27.90625 -7.390625 C 29.769531 -9.722656 31.835938 -12.957031 34.109375 -17.09375 C 36.390625 -21.226562 38.691406 -25.570312 41.015625 -30.125 C 43.347656 -34.6875 45.535156 -38.785156 47.578125 -42.421875 C 48.691406 -44.179688 49.738281 -45.109375 50.71875 -45.203125 C 51.695312 -45.296875 52.582031 -44.898438 53.375 -44.015625 C 54.164062 -43.140625 54.789062 -42.140625 55.25 -41.015625 C 55.71875 -39.898438 55.90625 -39.066406 55.8125 -38.515625 C 54.789062 -35.910156 53.601562 -32.929688 52.25 -29.578125 C 50.90625 -26.234375 49.347656 -22.816406 47.578125 -19.328125 C 45.804688 -15.835938 43.804688 -12.601562 41.578125 -9.625 C 39.347656 -6.644531 36.882812 -4.203125 34.1875 -2.296875 C 31.488281 -0.390625 28.507812 0.609375 25.25 0.703125 C 20.507812 0.796875 16.582031 -0.390625 13.46875 -2.859375 C 10.351562 -5.328125 7.957031 -8.695312 6.28125 -12.96875 C 4.601562 -17.25 3.507812 -22.015625 3 -27.265625 C 2.488281 -32.523438 2.414062 -37.828125 2.78125 -43.171875 C 3.15625 -48.523438 3.832031 -53.570312 4.8125 -58.3125 C 5.789062 -63.0625 6.976562 -67.066406 8.375 -70.328125 C 10.050781 -74.328125 12.070312 -78.234375 14.4375 -82.046875 C 16.8125 -85.859375 19.414062 -89.019531 22.25 -91.53125 C 25.09375 -94.039062 28 -95.4375 30.96875 -95.71875 C 32.550781 -95.90625 34.132812 -95.695312 35.71875 -95.09375 C 37.300781 -94.488281 38.789062 -93.019531 40.1875 -90.6875 C 40.644531 -89.945312 41.128906 -88.738281 41.640625 -87.0625 C 42.160156 -85.394531 42.535156 -83.675781 42.765625 -81.90625 C 42.992188 -80.132812 42.972656 -78.691406 42.703125 -77.578125 C 42.609375 -77.296875 42.257812 -76.78125 41.65625 -76.03125 C 41.050781 -75.289062 40.421875 -74.921875 39.765625 -74.921875 C 39.117188 -74.921875 38.609375 -75.851562 38.234375 -77.71875 C 38.046875 -78.457031 37.972656 -79.269531 38.015625 -80.15625 C 38.066406 -81.039062 38 -81.898438 37.8125 -82.734375 Z M 37.8125 -82.734375 "/></g></g></g><g fill="#4e4f50" fill-opacity="1"><g transform="translate(122.138333, 147.013676)"><g><path d="M 12.96875 -27.90625 C 12.96875 -25.863281 13.0625 -23.28125 13.25 -20.15625 C 13.4375 -17.039062 13.878906 -14.0625 14.578125 -11.21875 C 15.273438 -8.382812 16.414062 -6.457031 18 -5.4375 C 20.039062 -4.132812 21.710938 -4.203125 23.015625 -5.640625 C 24.316406 -7.085938 25.269531 -9.390625 25.875 -12.546875 C 26.488281 -15.710938 26.835938 -19.269531 26.921875 -23.21875 C 27.015625 -27.175781 26.851562 -31.128906 26.4375 -35.078125 C 26.019531 -39.035156 25.4375 -42.476562 24.6875 -45.40625 C 23.945312 -48.34375 23.066406 -50.320312 22.046875 -51.34375 C 21.023438 -52.363281 19.957031 -51.945312 18.84375 -50.09375 C 17.625 -48.320312 16.570312 -46.085938 15.6875 -43.390625 C 14.8125 -40.691406 14.140625 -37.945312 13.671875 -35.15625 C 13.203125 -32.363281 12.96875 -29.945312 12.96875 -27.90625 Z M 22.46875 -59.15625 C 22.832031 -58.414062 22.851562 -57.648438 22.53125 -56.859375 C 22.207031 -56.066406 21.90625 -55.347656 21.625 -54.703125 C 25.4375 -54.140625 28.550781 -52.226562 30.96875 -48.96875 C 33.394531 -45.71875 35.117188 -41.789062 36.140625 -37.1875 C 37.160156 -32.582031 37.484375 -27.835938 37.109375 -22.953125 C 36.742188 -18.066406 35.695312 -13.578125 33.96875 -9.484375 C 32.25 -5.390625 29.859375 -2.320312 26.796875 -0.28125 C 24.742188 1.019531 22.253906 1.507812 19.328125 1.1875 C 16.398438 0.863281 14.050781 0.0976562 12.28125 -1.109375 C 9.019531 -3.441406 6.597656 -6.722656 5.015625 -10.953125 C 3.441406 -15.179688 2.609375 -19.832031 2.515625 -24.90625 C 2.421875 -29.976562 2.882812 -34.976562 3.90625 -39.90625 C 4.925781 -44.832031 6.410156 -49.25 8.359375 -53.15625 C 10.316406 -57.0625 12.550781 -59.898438 15.0625 -61.671875 C 16.09375 -62.410156 17.441406 -62.523438 19.109375 -62.015625 C 20.785156 -61.503906 21.90625 -60.550781 22.46875 -59.15625 Z M 22.46875 -59.15625 "/></g></g></g><g fill="#4e4f50" fill-opacity="1"><g transform="translate(162.044501, 147.013676)"><g><path d="M 12.96875 -27.90625 C 12.96875 -25.863281 13.0625 -23.28125 13.25 -20.15625 C 13.4375 -17.039062 13.878906 -14.0625 14.578125 -11.21875 C 15.273438 -8.382812 16.414062 -6.457031 18 -5.4375 C 20.039062 -4.132812 21.710938 -4.203125 23.015625 -5.640625 C 24.316406 -7.085938 25.269531 -9.390625 25.875 -12.546875 C 26.488281 -15.710938 26.835938 -19.269531 26.921875 -23.21875 C 27.015625 -27.175781 26.851562 -31.128906 26.4375 -35.078125 C 26.019531 -39.035156 25.4375 -42.476562 24.6875 -45.40625 C 23.945312 -48.34375 23.066406 -50.320312 22.046875 -51.34375 C 21.023438 -52.363281 19.957031 -51.945312 18.84375 -50.09375 C 17.625 -48.320312 16.570312 -46.085938 15.6875 -43.390625 C 14.8125 -40.691406 14.140625 -37.945312 13.671875 -35.15625 C 13.203125 -32.363281 12.96875 -29.945312 12.96875 -27.90625 Z M 22.46875 -59.15625 C 22.832031 -58.414062 22.851562 -57.648438 22.53125 -56.859375 C 22.207031 -56.066406 21.90625 -55.347656 21.625 -54.703125 C 25.4375 -54.140625 28.550781 -52.226562 30.96875 -48.96875 C 33.394531 -45.71875 35.117188 -41.789062 36.140625 -37.1875 C 37.160156 -32.582031 37.484375 -27.835938 37.109375 -22.953125 C 36.742188 -18.066406 35.695312 -13.578125 33.96875 -9.484375 C 32.25 -5.390625 29.859375 -2.320312 26.796875 -0.28125 C 24.742188 1.019531 22.253906 1.507812 19.328125 1.1875 C 16.398438 0.863281 14.050781 0.0976562 12.28125 -1.109375 C 9.019531 -3.441406 6.597656 -6.722656 5.015625 -10.953125 C 3.441406 -15.179688 2.609375 -19.832031 2.515625 -24.90625 C 2.421875 -29.976562 2.882812 -34.976562 3.90625 -39.90625 C 4.925781 -44.832031 6.410156 -49.25 8.359375 -53.15625 C 10.316406 -57.0625 12.550781 -59.898438 15.0625 -61.671875 C 16.09375 -62.410156 17.441406 -62.523438 19.109375 -62.015625 C 20.785156 -61.503906 21.90625 -60.550781 22.46875 -59.15625 Z M 22.46875 -59.15625 "/></g></g></g><g fill="#4e4f50" fill-opacity="1"><g transform="translate(201.950669, 147.013676)"><g><path d="M 36.421875 -56.234375 C 34.554688 -53.910156 32.367188 -51.351562 29.859375 -48.5625 C 27.347656 -45.769531 24.953125 -42.976562 22.671875 -40.1875 C 20.390625 -37.394531 18.597656 -34.742188 17.296875 -32.234375 C 18.410156 -29.253906 20.082031 -26.273438 22.3125 -23.296875 C 24.550781 -20.328125 27.039062 -17.609375 29.78125 -15.140625 C 32.53125 -12.671875 35.300781 -10.644531 38.09375 -9.0625 C 39.207031 -8.414062 39.625 -7.789062 39.34375 -7.1875 C 39.0625 -6.582031 38.410156 -6.066406 37.390625 -5.640625 C 36.367188 -5.222656 35.253906 -4.992188 34.046875 -4.953125 C 32.835938 -4.910156 31.8125 -5.070312 30.96875 -5.4375 C 26.96875 -7.488281 23.617188 -10.09375 20.921875 -13.25 C 18.234375 -16.414062 15.445312 -19.859375 12.5625 -23.578125 C 12.5625 -22.554688 12.582031 -21.046875 12.625 -19.046875 C 12.675781 -17.046875 12.722656 -14.90625 12.765625 -12.625 C 12.816406 -10.34375 12.816406 -8.269531 12.765625 -6.40625 C 12.722656 -4.550781 12.65625 -3.207031 12.5625 -2.375 C 12 0.320312 11.179688 2.066406 10.109375 2.859375 C 9.046875 3.648438 7.976562 3.835938 6.90625 3.421875 C 5.832031 3.003906 4.898438 2.328125 4.109375 1.390625 C 3.328125 0.460938 2.9375 -0.414062 2.9375 -1.25 C 2.65625 -7.113281 2.515625 -13.71875 2.515625 -21.0625 C 2.515625 -28.414062 2.628906 -36.113281 2.859375 -44.15625 C 3.085938 -52.207031 3.390625 -60.253906 3.765625 -68.296875 C 4.140625 -76.347656 4.601562 -83.953125 5.15625 -91.109375 C 5.25 -92.316406 5.269531 -93.316406 5.21875 -94.109375 C 5.175781 -94.898438 5.390625 -95.4375 5.859375 -95.71875 C 6.328125 -96 7.394531 -95.859375 9.0625 -95.296875 C 11.113281 -94.648438 12.507812 -93.460938 13.25 -91.734375 C 14 -90.015625 14.394531 -88.15625 14.4375 -86.15625 C 14.488281 -84.15625 14.46875 -82.410156 14.375 -80.921875 C 14.1875 -76.921875 14.019531 -72.570312 13.875 -67.875 C 13.738281 -63.175781 13.550781 -58.546875 13.3125 -53.984375 C 13.082031 -49.429688 12.785156 -45.4375 12.421875 -42 L 30 -62.65625 C 30.375 -63.113281 31.164062 -63.34375 32.375 -63.34375 C 33.582031 -63.34375 34.742188 -63.109375 35.859375 -62.640625 C 36.972656 -62.179688 37.691406 -61.414062 38.015625 -60.34375 C 38.347656 -59.28125 37.816406 -57.910156 36.421875 -56.234375 Z M 36.421875 -56.234375 "/></g></g></g><g fill="#4e4f50" fill-opacity="1"><g transform="translate(243.810278, 147.013676)"><g><path d="M 23.015625 -41.71875 C 20.234375 -39.851562 18.097656 -37.335938 16.609375 -34.171875 C 15.117188 -31.015625 14.09375 -27.691406 13.53125 -24.203125 C 12.976562 -20.710938 12.703125 -17.457031 12.703125 -14.4375 C 12.703125 -11.414062 12.789062 -9.019531 12.96875 -7.25 C 17.15625 -8 20.710938 -9.601562 23.640625 -12.0625 C 26.578125 -14.53125 28.859375 -17.390625 30.484375 -20.640625 C 32.109375 -23.898438 33.15625 -27.15625 33.625 -30.40625 C 34.09375 -33.664062 34 -36.484375 33.34375 -38.859375 C 32.695312 -41.234375 31.507812 -42.769531 29.78125 -43.46875 C 28.0625 -44.164062 25.804688 -43.582031 23.015625 -41.71875 Z M 2.515625 -7.671875 C 2.515625 -11.117188 2.582031 -15.492188 2.71875 -20.796875 C 2.863281 -26.097656 3.003906 -31.789062 3.140625 -37.875 C 3.273438 -43.96875 3.410156 -49.828125 3.546875 -55.453125 C 3.691406 -61.085938 3.832031 -65.953125 3.96875 -70.046875 C 4.113281 -74.140625 4.1875 -76.882812 4.1875 -78.28125 C 4.28125 -82.09375 4.140625 -84.90625 3.765625 -86.71875 C 3.390625 -88.53125 3.34375 -89.691406 3.625 -90.203125 C 3.90625 -90.710938 5.066406 -90.96875 7.109375 -90.96875 C 8.691406 -90.96875 10.25 -90.410156 11.78125 -89.296875 C 13.320312 -88.179688 14.28125 -87.019531 14.65625 -85.8125 C 14.84375 -85.34375 14.9375 -83.710938 14.9375 -80.921875 C 14.9375 -78.128906 14.84375 -74.800781 14.65625 -70.9375 C 14.46875 -67.082031 14.28125 -63.128906 14.09375 -59.078125 C 13.90625 -55.035156 13.738281 -51.429688 13.59375 -48.265625 C 13.457031 -45.109375 13.390625 -42.925781 13.390625 -41.71875 C 13.859375 -42.644531 14.789062 -43.851562 16.1875 -45.34375 C 17.582031 -46.832031 19.328125 -48.132812 21.421875 -49.25 C 23.515625 -50.363281 25.882812 -50.875 28.53125 -50.78125 C 31.1875 -50.695312 33.957031 -49.582031 36.84375 -47.4375 C 39.164062 -45.675781 40.976562 -43.28125 42.28125 -40.25 C 43.582031 -37.226562 44.140625 -33.90625 43.953125 -30.28125 C 43.765625 -26.65625 42.691406 -22.957031 40.734375 -19.1875 C 38.785156 -15.414062 35.691406 -11.898438 31.453125 -8.640625 C 27.222656 -5.390625 21.71875 -2.742188 14.9375 -0.703125 C 11.300781 0.503906 8.320312 0.757812 6 0.0625 C 3.675781 -0.632812 2.515625 -3.210938 2.515625 -7.671875 Z M 2.515625 -7.671875 "/></g></g></g><g fill="#4e4f50" fill-opacity="1"><g transform="translate(290.413972, 147.013676)"><g><path d="M 17.578125 -34.609375 C 16.085938 -31.910156 14.96875 -28.863281 14.21875 -25.46875 C 13.476562 -22.070312 13.296875 -18.722656 13.671875 -15.421875 C 14.046875 -12.117188 15.160156 -9.164062 17.015625 -6.5625 C 17.859375 -5.351562 18.835938 -5.234375 19.953125 -6.203125 C 21.066406 -7.179688 22.160156 -8.625 23.234375 -10.53125 C 24.304688 -12.4375 25.234375 -14.25 26.015625 -15.96875 C 26.804688 -17.695312 27.296875 -18.742188 27.484375 -19.109375 C 29.160156 -23.015625 30.441406 -26.335938 31.328125 -29.078125 C 32.210938 -31.828125 32.957031 -34.503906 33.5625 -37.109375 C 34.164062 -39.710938 34.929688 -42.878906 35.859375 -46.609375 C 36.140625 -47.722656 36.28125 -48.765625 36.28125 -49.734375 C 36.28125 -50.710938 36.675781 -51.617188 37.46875 -52.453125 C 38.257812 -53.296875 39.910156 -54.179688 42.421875 -55.109375 C 44.273438 -55.671875 45.550781 -55.53125 46.25 -54.6875 C 46.945312 -53.851562 47.296875 -52.597656 47.296875 -50.921875 C 47.296875 -49.253906 47.179688 -47.347656 46.953125 -45.203125 C 46.722656 -43.066406 46.5625 -40.972656 46.46875 -38.921875 C 46.375 -36.046875 46.28125 -32.695312 46.1875 -28.875 C 46.09375 -25.0625 46.09375 -21.269531 46.1875 -17.5 C 46.28125 -13.738281 46.46875 -10.601562 46.75 -8.09375 C 46.832031 -6.507812 47.082031 -5.296875 47.5 -4.453125 C 47.925781 -3.617188 48.328125 -2.972656 48.703125 -2.515625 C 49.816406 -1.023438 49.882812 0.0390625 48.90625 0.6875 C 47.925781 1.34375 46.550781 1.671875 44.78125 1.671875 C 43.019531 1.671875 41.535156 1.441406 40.328125 0.984375 C 38.367188 0.140625 36.992188 -1.234375 36.203125 -3.140625 C 35.410156 -5.046875 34.945312 -7.226562 34.8125 -9.6875 C 34.675781 -12.15625 34.695312 -14.710938 34.875 -17.359375 C 35.0625 -20.015625 35.203125 -22.460938 35.296875 -24.703125 C 34.554688 -23.117188 33.628906 -20.859375 32.515625 -17.921875 C 31.398438 -14.992188 30.050781 -12.039062 28.46875 -9.0625 C 26.882812 -6.09375 25.09375 -3.675781 23.09375 -1.8125 C 21.09375 0.0507812 18.789062 0.75 16.1875 0.28125 C 12.28125 -0.5625 9.207031 -2.445312 6.96875 -5.375 C 4.738281 -8.300781 3.34375 -11.859375 2.78125 -16.046875 C 2.226562 -20.234375 2.507812 -24.628906 3.625 -29.234375 C 4.738281 -33.835938 6.664062 -38.253906 9.40625 -42.484375 C 12.15625 -46.710938 15.71875 -50.363281 20.09375 -53.4375 C 23.070312 -55.488281 25.953125 -56.789062 28.734375 -57.34375 C 31.523438 -57.90625 33.550781 -57.882812 34.8125 -57.28125 C 36.070312 -56.675781 35.910156 -55.535156 34.328125 -53.859375 C 33.578125 -53.203125 32.757812 -52.640625 31.875 -52.171875 C 31 -51.710938 29.929688 -50.992188 28.671875 -50.015625 C 27.421875 -49.046875 25.910156 -47.375 24.140625 -45 C 22.367188 -42.625 20.179688 -39.160156 17.578125 -34.609375 Z M 17.578125 -34.609375 "/></g></g></g><g fill="#4e4f50" fill-opacity="1"><g transform="translate(342.598965, 147.013676)"><g><path d="M 0.984375 -10.609375 C 0.609375 -11.535156 0.835938 -12.507812 1.671875 -13.53125 C 2.515625 -14.550781 3.46875 -15.128906 4.53125 -15.265625 C 5.601562 -15.410156 6.328125 -14.738281 6.703125 -13.25 C 7.535156 -10.1875 8.832031 -8.023438 10.59375 -6.765625 C 12.363281 -5.515625 14.269531 -4.929688 16.3125 -5.015625 C 18.363281 -5.109375 20.179688 -5.691406 21.765625 -6.765625 C 23.347656 -7.835938 24.394531 -9.28125 24.90625 -11.09375 C 25.414062 -12.90625 24.972656 -14.835938 23.578125 -16.890625 C 21.722656 -19.671875 19.488281 -22.25 16.875 -24.625 C 14.269531 -27 11.992188 -29.300781 10.046875 -31.53125 C 8.648438 -33.300781 7.441406 -35.441406 6.421875 -37.953125 C 5.398438 -40.460938 4.816406 -43.113281 4.671875 -45.90625 C 4.535156 -48.695312 5 -51.367188 6.0625 -53.921875 C 7.132812 -56.484375 9.019531 -58.601562 11.71875 -60.28125 C 14.320312 -61.863281 16.945312 -62.515625 19.59375 -62.234375 C 22.25 -61.953125 24.132812 -61.441406 25.25 -60.703125 C 27.207031 -59.398438 28.367188 -58.117188 28.734375 -56.859375 C 29.109375 -55.597656 29.039062 -54.503906 28.53125 -53.578125 C 28.019531 -52.648438 27.367188 -52 26.578125 -51.625 C 25.785156 -51.25 25.207031 -51.34375 24.84375 -51.90625 C 23.070312 -54.226562 21.1875 -55.457031 19.1875 -55.59375 C 17.1875 -55.738281 15.554688 -54.992188 14.296875 -53.359375 C 13.046875 -51.734375 12.695312 -49.390625 13.25 -46.328125 C 13.625 -43.816406 14.671875 -41.46875 16.390625 -39.28125 C 18.109375 -37.09375 20.035156 -34.972656 22.171875 -32.921875 C 24.316406 -30.878906 26.390625 -28.90625 28.390625 -27 C 30.390625 -25.09375 31.898438 -23.207031 32.921875 -21.34375 C 34.503906 -18.457031 35.015625 -15.617188 34.453125 -12.828125 C 33.898438 -10.046875 32.671875 -7.535156 30.765625 -5.296875 C 28.859375 -3.066406 26.554688 -1.300781 23.859375 0 C 21.160156 1.300781 18.320312 1.90625 15.34375 1.8125 C 12.375 1.71875 9.609375 0.695312 7.046875 -1.25 C 4.484375 -3.207031 2.460938 -6.328125 0.984375 -10.609375 Z M 0.984375 -10.609375 "/></g></g></g><g fill="#4e4f50" fill-opacity="1"><g transform="translate(379.714477, 147.013676)"><g><path d="M 12.140625 -25.109375 C 13.441406 -25.765625 15.019531 -26.882812 16.875 -28.46875 C 18.738281 -30.050781 20.625 -31.84375 22.53125 -33.84375 C 24.4375 -35.84375 26.132812 -37.84375 27.625 -39.84375 C 29.113281 -41.84375 30.09375 -43.535156 30.5625 -44.921875 C 31.582031 -47.992188 32.066406 -50.550781 32.015625 -52.59375 C 31.972656 -54.644531 31.207031 -55.738281 29.71875 -55.875 C 28.226562 -56.019531 25.953125 -54.789062 22.890625 -52.1875 C 21.210938 -50.789062 19.722656 -48.925781 18.421875 -46.59375 C 17.117188 -44.269531 15.976562 -41.757812 15 -39.0625 C 14.019531 -36.363281 13.296875 -33.78125 12.828125 -31.3125 C 12.367188 -28.851562 12.140625 -26.785156 12.140625 -25.109375 Z M 12.703125 -14.65625 C 12.972656 -11.863281 13.644531 -9.28125 14.71875 -6.90625 C 15.789062 -4.53125 17.28125 -3.0625 19.1875 -2.5 C 21.09375 -1.945312 23.441406 -3.019531 26.234375 -5.71875 C 27.066406 -6.550781 27.804688 -7.296875 28.453125 -7.953125 C 29.109375 -8.609375 29.625 -8.976562 30 -9.0625 C 30.832031 -9.0625 31.34375 -8.25 31.53125 -6.625 C 31.71875 -5 31.578125 -3.722656 31.109375 -2.796875 C 29.804688 -0.191406 27.921875 1.476562 25.453125 2.21875 C 22.992188 2.96875 20.414062 3.015625 17.71875 2.359375 C 15.019531 1.710938 12.742188 0.554688 10.890625 -1.109375 C 8.097656 -3.441406 6.050781 -6.46875 4.75 -10.1875 C 3.445312 -13.90625 2.722656 -17.925781 2.578125 -22.25 C 2.441406 -26.582031 2.769531 -30.75 3.5625 -34.75 C 4.351562 -38.75 5.445312 -42.1875 6.84375 -45.0625 C 8.238281 -47.851562 9.816406 -50.523438 11.578125 -53.078125 C 13.347656 -55.640625 15.535156 -57.6875 18.140625 -59.21875 C 20.742188 -60.757812 23.90625 -61.390625 27.625 -61.109375 C 32.28125 -60.742188 35.515625 -59.28125 37.328125 -56.71875 C 39.140625 -54.15625 39.835938 -51.035156 39.421875 -47.359375 C 39.003906 -43.691406 37.769531 -40 35.71875 -36.28125 C 33.675781 -32.5625 31.070312 -29.351562 27.90625 -26.65625 C 25.300781 -24.414062 22.789062 -22.363281 20.375 -20.5 C 17.957031 -18.644531 15.398438 -16.695312 12.703125 -14.65625 Z M 12.703125 -14.65625 "/></g></g></g></svg>