<svg xmlns="http://www.w3.org/2000/svg" xmlns:xlink="http://www.w3.org/1999/xlink" width="171" zoomAndPan="magnify" viewBox="0 0 128.25 46.499999" height="62" preserveAspectRatio="xMidYMid meet" version="1.0"><defs><g/><clipPath id="d51f14b88f"><path d="M 0.3125 0 L 127.195312 0 L 127.195312 46.003906 L 0.3125 46.003906 Z M 0.3125 0 " clip-rule="nonzero"/></clipPath><clipPath id="b674d0863f"><path d="M 26.320312 0 L 49.320312 0 L 49.320312 20.777344 L 26.320312 20.777344 Z M 26.320312 0 " clip-rule="nonzero"/></clipPath></defs><g clip-path="url(#d51f14b88f)"><path fill="#ffffff" d="M 0.3125 0 L 127.195312 0 L 127.195312 46.003906 L 0.3125 46.003906 Z M 0.3125 0 " fill-opacity="1" fill-rule="nonzero"/></g><g clip-path="url(#b674d0863f)"><path fill="#89b9d0" d="M 26.472656 8.90625 C 26.855469 11 28.574219 12.707031 30.660156 13.054688 C 30.875 13.089844 30.921875 13.160156 30.921875 13.363281 C 30.914062 15.648438 30.914062 16.648438 30.914062 18.210938 C 32.585938 17.703125 35.019531 17.378906 37.734375 17.378906 C 40.445312 17.378906 42.878906 17.703125 44.550781 18.210938 C 44.550781 16.648438 44.554688 15.648438 44.546875 13.363281 C 44.546875 13.160156 44.59375 13.089844 44.804688 13.054688 C 46.894531 12.707031 48.609375 11 48.996094 8.90625 C 49.503906 6.113281 47.769531 3.472656 44.996094 2.835938 C 44.09375 2.625 43.199219 2.675781 42.308594 2.949219 C 42.300781 2.953125 42.292969 2.953125 42.285156 2.953125 C 41.949219 2.496094 41.664062 2.046875 41.316406 1.660156 C 40.378906 0.625 39.195312 0.0546875 37.804688 0 L 37.660156 0 C 36.273438 0.0546875 35.085938 0.625 34.152344 1.660156 C 33.796875 2.046875 33.519531 2.496094 33.183594 2.953125 L 33.183594 2.957031 C 33.183594 2.957031 33.183594 2.957031 33.179688 2.957031 L 33.179688 2.953125 C 33.171875 2.953125 33.160156 2.953125 33.152344 2.949219 C 32.269531 2.675781 31.375 2.625 30.46875 2.835938 C 27.691406 3.472656 25.957031 6.113281 26.472656 8.90625 Z M 37.734375 18.441406 C 40.445312 18.441406 42.878906 18.765625 44.550781 19.273438 L 44.550781 20.882812 C 42.878906 20.371094 40.445312 20.050781 37.734375 20.050781 C 35.019531 20.050781 32.585938 20.371094 30.914062 20.882812 L 30.914062 19.273438 C 32.585938 18.765625 35.019531 18.441406 37.734375 18.441406 Z M 37.734375 18.441406 " fill-opacity="1" fill-rule="nonzero"/></g><g fill="#363d46" fill-opacity="1"><g transform="translate(8.689551, 34.535161)"><g><path d="M 8.84375 0.25 C 7.332031 0.25 5.96875 -0.078125 4.75 -0.734375 C 3.53125 -1.390625 2.570312 -2.296875 1.875 -3.453125 C 1.175781 -4.617188 0.828125 -5.9375 0.828125 -7.40625 C 0.828125 -8.875 1.175781 -10.191406 1.875 -11.359375 C 2.570312 -12.523438 3.53125 -13.4375 4.75 -14.09375 C 5.96875 -14.75 7.34375 -15.078125 8.875 -15.078125 C 10.15625 -15.078125 11.3125 -14.847656 12.34375 -14.390625 C 13.382812 -13.941406 14.257812 -13.296875 14.96875 -12.453125 L 12.765625 -10.421875 C 11.765625 -11.578125 10.523438 -12.15625 9.046875 -12.15625 C 8.128906 -12.15625 7.304688 -11.953125 6.578125 -11.546875 C 5.859375 -11.148438 5.296875 -10.585938 4.890625 -9.859375 C 4.492188 -9.140625 4.296875 -8.320312 4.296875 -7.40625 C 4.296875 -6.488281 4.492188 -5.671875 4.890625 -4.953125 C 5.296875 -4.234375 5.859375 -3.671875 6.578125 -3.265625 C 7.304688 -2.867188 8.128906 -2.671875 9.046875 -2.671875 C 10.523438 -2.671875 11.765625 -3.253906 12.765625 -4.421875 L 14.96875 -2.390625 C 14.257812 -1.523438 13.382812 -0.867188 12.34375 -0.421875 C 11.300781 0.0234375 10.132812 0.25 8.84375 0.25 Z M 8.84375 0.25 "/></g></g></g><g fill="#363d46" fill-opacity="1"><g transform="translate(24.199217, 34.535161)"><g><path d="M 6.9375 0.171875 C 5.738281 0.171875 4.660156 -0.078125 3.703125 -0.578125 C 2.753906 -1.078125 2.007812 -1.769531 1.46875 -2.65625 C 0.9375 -3.550781 0.671875 -4.5625 0.671875 -5.6875 C 0.671875 -6.820312 0.9375 -7.832031 1.46875 -8.71875 C 2.007812 -9.613281 2.753906 -10.3125 3.703125 -10.8125 C 4.660156 -11.3125 5.738281 -11.5625 6.9375 -11.5625 C 8.144531 -11.5625 9.21875 -11.3125 10.15625 -10.8125 C 11.101562 -10.3125 11.84375 -9.613281 12.375 -8.71875 C 12.914062 -7.832031 13.1875 -6.820312 13.1875 -5.6875 C 13.1875 -4.5625 12.914062 -3.550781 12.375 -2.65625 C 11.84375 -1.769531 11.101562 -1.078125 10.15625 -0.578125 C 9.21875 -0.078125 8.144531 0.171875 6.9375 0.171875 Z M 6.9375 -2.546875 C 7.789062 -2.546875 8.488281 -2.828125 9.03125 -3.390625 C 9.570312 -3.960938 9.84375 -4.726562 9.84375 -5.6875 C 9.84375 -6.65625 9.570312 -7.421875 9.03125 -7.984375 C 8.488281 -8.554688 7.789062 -8.84375 6.9375 -8.84375 C 6.09375 -8.84375 5.394531 -8.554688 4.84375 -7.984375 C 4.289062 -7.421875 4.015625 -6.65625 4.015625 -5.6875 C 4.015625 -4.726562 4.289062 -3.960938 4.84375 -3.390625 C 5.394531 -2.828125 6.09375 -2.546875 6.9375 -2.546875 Z M 6.9375 -2.546875 "/></g></g></g><g fill="#363d46" fill-opacity="1"><g transform="translate(38.05847, 34.535161)"><g><path d="M 6.9375 0.171875 C 5.738281 0.171875 4.660156 -0.078125 3.703125 -0.578125 C 2.753906 -1.078125 2.007812 -1.769531 1.46875 -2.65625 C 0.9375 -3.550781 0.671875 -4.5625 0.671875 -5.6875 C 0.671875 -6.820312 0.9375 -7.832031 1.46875 -8.71875 C 2.007812 -9.613281 2.753906 -10.3125 3.703125 -10.8125 C 4.660156 -11.3125 5.738281 -11.5625 6.9375 -11.5625 C 8.144531 -11.5625 9.21875 -11.3125 10.15625 -10.8125 C 11.101562 -10.3125 11.84375 -9.613281 12.375 -8.71875 C 12.914062 -7.832031 13.1875 -6.820312 13.1875 -5.6875 C 13.1875 -4.5625 12.914062 -3.550781 12.375 -2.65625 C 11.84375 -1.769531 11.101562 -1.078125 10.15625 -0.578125 C 9.21875 -0.078125 8.144531 0.171875 6.9375 0.171875 Z M 6.9375 -2.546875 C 7.789062 -2.546875 8.488281 -2.828125 9.03125 -3.390625 C 9.570312 -3.960938 9.84375 -4.726562 9.84375 -5.6875 C 9.84375 -6.65625 9.570312 -7.421875 9.03125 -7.984375 C 8.488281 -8.554688 7.789062 -8.84375 6.9375 -8.84375 C 6.09375 -8.84375 5.394531 -8.554688 4.84375 -7.984375 C 4.289062 -7.421875 4.015625 -6.65625 4.015625 -5.6875 C 4.015625 -4.726562 4.289062 -3.960938 4.84375 -3.390625 C 5.394531 -2.828125 6.09375 -2.546875 6.9375 -2.546875 Z M 6.9375 -2.546875 "/></g></g></g><g fill="#363d46" fill-opacity="1"><g transform="translate(51.917723, 34.535161)"><g><path d="M 6.421875 -4.46875 L 4.828125 -2.90625 L 4.828125 0 L 1.53125 0 L 1.53125 -15.703125 L 4.828125 -15.703125 L 4.828125 -6.8125 L 9.65625 -11.390625 L 13.59375 -11.390625 L 8.84375 -6.5625 L 14.015625 0 L 10.015625 0 Z M 6.421875 -4.46875 "/></g></g></g><g fill="#363d46" fill-opacity="1"><g transform="translate(65.882772, 34.535161)"><g><path d="M 8.25 -11.5625 C 9.3125 -11.5625 10.273438 -11.316406 11.140625 -10.828125 C 12.015625 -10.335938 12.695312 -9.648438 13.1875 -8.765625 C 13.6875 -7.890625 13.9375 -6.863281 13.9375 -5.6875 C 13.9375 -4.519531 13.6875 -3.492188 13.1875 -2.609375 C 12.695312 -1.734375 12.015625 -1.050781 11.140625 -0.5625 C 10.273438 -0.0703125 9.3125 0.171875 8.25 0.171875 C 6.6875 0.171875 5.492188 -0.320312 4.671875 -1.3125 L 4.671875 0 L 1.53125 0 L 1.53125 -15.703125 L 4.828125 -15.703125 L 4.828125 -10.1875 C 5.660156 -11.101562 6.800781 -11.5625 8.25 -11.5625 Z M 7.6875 -2.546875 C 8.53125 -2.546875 9.222656 -2.828125 9.765625 -3.390625 C 10.304688 -3.960938 10.578125 -4.726562 10.578125 -5.6875 C 10.578125 -6.65625 10.304688 -7.421875 9.765625 -7.984375 C 9.222656 -8.554688 8.53125 -8.84375 7.6875 -8.84375 C 6.84375 -8.84375 6.144531 -8.554688 5.59375 -7.984375 C 5.050781 -7.421875 4.78125 -6.65625 4.78125 -5.6875 C 4.78125 -4.726562 5.050781 -3.960938 5.59375 -3.390625 C 6.144531 -2.828125 6.84375 -2.546875 7.6875 -2.546875 Z M 7.6875 -2.546875 "/></g></g></g><g fill="#363d46" fill-opacity="1"><g transform="translate(80.482596, 34.535161)"><g><path d="M 6.125 -11.5625 C 7.882812 -11.5625 9.238281 -11.140625 10.1875 -10.296875 C 11.132812 -9.460938 11.609375 -8.195312 11.609375 -6.5 L 11.609375 0 L 8.515625 0 L 8.515625 -1.421875 C 7.890625 -0.359375 6.726562 0.171875 5.03125 0.171875 C 4.15625 0.171875 3.394531 0.0234375 2.75 -0.265625 C 2.113281 -0.566406 1.625 -0.976562 1.28125 -1.5 C 0.945312 -2.019531 0.78125 -2.613281 0.78125 -3.28125 C 0.78125 -4.34375 1.175781 -5.175781 1.96875 -5.78125 C 2.769531 -6.382812 4.003906 -6.6875 5.671875 -6.6875 L 8.296875 -6.6875 C 8.296875 -7.40625 8.078125 -7.957031 7.640625 -8.34375 C 7.203125 -8.738281 6.546875 -8.9375 5.671875 -8.9375 C 5.066406 -8.9375 4.46875 -8.835938 3.875 -8.640625 C 3.289062 -8.453125 2.796875 -8.195312 2.390625 -7.875 L 1.203125 -10.1875 C 1.828125 -10.625 2.570312 -10.960938 3.4375 -11.203125 C 4.3125 -11.441406 5.207031 -11.5625 6.125 -11.5625 Z M 5.859375 -2.046875 C 6.429688 -2.046875 6.9375 -2.175781 7.375 -2.4375 C 7.8125 -2.707031 8.117188 -3.09375 8.296875 -3.59375 L 8.296875 -4.765625 L 6.03125 -4.765625 C 4.675781 -4.765625 4 -4.320312 4 -3.4375 C 4 -3.007812 4.164062 -2.671875 4.5 -2.421875 C 4.832031 -2.171875 5.285156 -2.046875 5.859375 -2.046875 Z M 5.859375 -2.046875 "/></g></g></g><g fill="#363d46" fill-opacity="1"><g transform="translate(93.537804, 34.535161)"><g><path d="M 5.359375 0.171875 C 4.410156 0.171875 3.484375 0.0546875 2.578125 -0.171875 C 1.679688 -0.410156 0.960938 -0.707031 0.421875 -1.0625 L 1.53125 -3.4375 C 2.03125 -3.101562 2.640625 -2.832031 3.359375 -2.625 C 4.085938 -2.425781 4.796875 -2.328125 5.484375 -2.328125 C 6.878906 -2.328125 7.578125 -2.671875 7.578125 -3.359375 C 7.578125 -3.691406 7.382812 -3.925781 7 -4.0625 C 6.625 -4.207031 6.039062 -4.328125 5.25 -4.421875 C 4.320312 -4.566406 3.550781 -4.726562 2.9375 -4.90625 C 2.332031 -5.09375 1.804688 -5.414062 1.359375 -5.875 C 0.921875 -6.34375 0.703125 -7.007812 0.703125 -7.875 C 0.703125 -8.59375 0.910156 -9.226562 1.328125 -9.78125 C 1.742188 -10.34375 2.347656 -10.78125 3.140625 -11.09375 C 3.941406 -11.40625 4.882812 -11.5625 5.96875 -11.5625 C 6.769531 -11.5625 7.566406 -11.472656 8.359375 -11.296875 C 9.160156 -11.117188 9.828125 -10.875 10.359375 -10.5625 L 9.25 -8.21875 C 8.25 -8.78125 7.15625 -9.0625 5.96875 -9.0625 C 5.257812 -9.0625 4.726562 -8.960938 4.375 -8.765625 C 4.03125 -8.566406 3.859375 -8.3125 3.859375 -8 C 3.859375 -7.644531 4.046875 -7.394531 4.421875 -7.25 C 4.804688 -7.113281 5.414062 -6.984375 6.25 -6.859375 C 7.175781 -6.703125 7.9375 -6.535156 8.53125 -6.359375 C 9.125 -6.179688 9.640625 -5.859375 10.078125 -5.390625 C 10.515625 -4.929688 10.734375 -4.285156 10.734375 -3.453125 C 10.734375 -2.742188 10.519531 -2.113281 10.09375 -1.5625 C 9.675781 -1.007812 9.0625 -0.582031 8.25 -0.28125 C 7.4375 0.0195312 6.472656 0.171875 5.359375 0.171875 Z M 5.359375 0.171875 "/></g></g></g><g fill="#363d46" fill-opacity="1"><g transform="translate(104.773318, 34.535161)"><g><path d="M 12.6875 -5.65625 C 12.6875 -5.613281 12.664062 -5.316406 12.625 -4.765625 L 4 -4.765625 C 4.15625 -4.054688 4.519531 -3.5 5.09375 -3.09375 C 5.675781 -2.6875 6.398438 -2.484375 7.265625 -2.484375 C 7.859375 -2.484375 8.382812 -2.566406 8.84375 -2.734375 C 9.300781 -2.910156 9.726562 -3.191406 10.125 -3.578125 L 11.875 -1.671875 C 10.800781 -0.441406 9.234375 0.171875 7.171875 0.171875 C 5.890625 0.171875 4.753906 -0.078125 3.765625 -0.578125 C 2.773438 -1.078125 2.007812 -1.769531 1.46875 -2.65625 C 0.9375 -3.550781 0.671875 -4.5625 0.671875 -5.6875 C 0.671875 -6.8125 0.9375 -7.820312 1.46875 -8.71875 C 2 -9.613281 2.722656 -10.3125 3.640625 -10.8125 C 4.566406 -11.3125 5.601562 -11.5625 6.75 -11.5625 C 7.863281 -11.5625 8.875 -11.320312 9.78125 -10.84375 C 10.6875 -10.363281 11.394531 -9.675781 11.90625 -8.78125 C 12.425781 -7.882812 12.6875 -6.84375 12.6875 -5.65625 Z M 6.78125 -9.0625 C 6.03125 -9.0625 5.398438 -8.847656 4.890625 -8.421875 C 4.378906 -8.003906 4.066406 -7.425781 3.953125 -6.6875 L 9.5625 -6.6875 C 9.457031 -7.40625 9.148438 -7.976562 8.640625 -8.40625 C 8.128906 -8.84375 7.507812 -9.0625 6.78125 -9.0625 Z M 6.78125 -9.0625 "/></g></g></g></svg>