<svg xmlns="http://www.w3.org/2000/svg" xmlns:xlink="http://www.w3.org/1999/xlink" width="586" zoomAndPan="magnify" viewBox="0 0 439.5 139.500001" height="186" preserveAspectRatio="xMidYMid meet" version="1.0"><defs><g/><clipPath id="92347e22ca"><path d="M 125.496094 0 L 188.269531 0 L 188.269531 57.542969 L 125.496094 57.542969 Z M 125.496094 0 " clip-rule="nonzero"/></clipPath></defs><g clip-path="url(#92347e22ca)"><path fill="#89b9d0" d="M 125.925781 24.503906 C 126.976562 30.257812 131.707031 34.960938 137.449219 35.914062 C 138.035156 36.011719 138.160156 36.207031 138.160156 36.761719 C 138.140625 43.050781 138.140625 45.796875 138.140625 50.097656 C 142.738281 48.695312 149.433594 47.808594 156.902344 47.808594 C 164.359375 47.808594 171.058594 48.695312 175.652344 50.097656 C 175.652344 45.796875 175.664062 43.050781 175.644531 36.761719 C 175.644531 36.207031 175.769531 36.011719 176.351562 35.914062 C 182.097656 34.960938 186.820312 30.257812 187.878906 24.503906 C 189.28125 16.8125 184.511719 9.550781 176.878906 7.796875 C 174.398438 7.222656 171.933594 7.359375 169.488281 8.109375 C 169.46875 8.121094 169.441406 8.121094 169.421875 8.121094 C 168.496094 6.863281 167.71875 5.628906 166.753906 4.566406 C 164.183594 1.722656 160.921875 0.15625 157.097656 0 L 156.699219 0 C 152.882812 0.15625 149.621094 1.722656 147.050781 4.566406 C 146.078125 5.628906 145.308594 6.863281 144.382812 8.121094 L 144.390625 8.128906 C 144.390625 8.128906 144.382812 8.128906 144.371094 8.128906 L 144.371094 8.121094 C 144.351562 8.121094 144.324219 8.121094 144.304688 8.109375 C 141.871094 7.359375 139.40625 7.222656 136.914062 7.796875 C 129.285156 9.550781 124.511719 16.8125 125.925781 24.503906 Z M 156.902344 50.730469 C 164.359375 50.730469 171.058594 51.617188 175.652344 53.019531 L 175.652344 57.4375 C 171.058594 56.035156 164.359375 55.152344 156.902344 55.152344 C 149.433594 55.152344 142.738281 56.035156 138.140625 57.4375 L 138.140625 53.019531 C 142.738281 51.617188 149.433594 50.730469 156.902344 50.730469 Z M 156.902344 50.730469 " fill-opacity="1" fill-rule="nonzero"/></g><g fill="#363d46" fill-opacity="1"><g transform="translate(103.505885, 99.096186)"><g><path d="M 29.53125 -17.265625 L 31.53125 -16.265625 C 28.957031 -11.742188 26.289062 -7.925781 23.53125 -4.8125 C 20.78125 -1.695312 18.175781 0.554688 15.71875 1.953125 C 13.269531 3.359375 10.988281 3.894531 8.875 3.5625 C 6.757812 3.226562 4.988281 2.0625 3.5625 0.0625 C 2.132812 -1.925781 1.125 -4.960938 0.53125 -9.046875 C -0.0625 -13.140625 -0.117188 -18.066406 0.359375 -23.828125 C 0.828125 -29.484375 1.726562 -34.378906 3.0625 -38.515625 C 4.394531 -42.648438 5.867188 -45.726562 7.484375 -47.75 C 9.109375 -49.769531 10.820312 -51.265625 12.625 -52.234375 C 14.425781 -53.210938 16.039062 -53.675781 17.46875 -53.625 C 18.894531 -53.582031 20.085938 -53.253906 21.046875 -52.640625 C 25.179688 -50.066406 26.0625 -43.21875 23.6875 -32.09375 L 21.609375 -33.671875 C 21.660156 -33.910156 21.707031 -34.253906 21.75 -34.703125 C 21.800781 -35.148438 21.863281 -35.929688 21.9375 -37.046875 C 22.007812 -38.171875 21.992188 -39.160156 21.890625 -40.015625 C 21.796875 -40.867188 21.546875 -41.664062 21.140625 -42.40625 C 20.742188 -43.144531 20.1875 -43.535156 19.46875 -43.578125 C 19.09375 -43.628906 18.757812 -43.628906 18.46875 -43.578125 C 18.1875 -43.535156 17.703125 -43.203125 17.015625 -42.578125 C 16.328125 -41.960938 15.71875 -41.0625 15.1875 -39.875 C 14.664062 -38.6875 14.117188 -36.785156 13.546875 -34.171875 C 12.984375 -31.554688 12.554688 -28.414062 12.265625 -24.75 C 11.742188 -18.945312 11.734375 -14.535156 12.234375 -11.515625 C 12.734375 -8.492188 13.515625 -6.460938 14.578125 -5.421875 C 15.648438 -4.378906 17.003906 -4.304688 18.640625 -5.203125 C 20.285156 -6.109375 22.007812 -7.570312 23.8125 -9.59375 C 25.625 -11.613281 27.53125 -14.171875 29.53125 -17.265625 Z M 29.53125 -17.265625 "/></g></g></g><g fill="#363d46" fill-opacity="1"><g transform="translate(131.31047, 99.096186)"><g><path d="M 35.671875 -24.46875 L 36.515625 -22.96875 C 36.273438 -22.78125 35.941406 -22.539062 35.515625 -22.25 C 35.472656 -22.207031 35.378906 -22.148438 35.234375 -22.078125 C 35.085938 -22.003906 34.992188 -21.941406 34.953125 -21.890625 L 34.3125 -21.46875 C 34.257812 -21.425781 34.148438 -21.351562 33.984375 -21.25 C 33.816406 -21.15625 33.6875 -21.082031 33.59375 -21.03125 C 33.5 -20.988281 33.351562 -20.894531 33.15625 -20.75 C 32.96875 -20.613281 32.828125 -20.519531 32.734375 -20.46875 C 32.210938 -20.226562 31.90625 -20.0625 31.8125 -19.96875 C 31.71875 -19.875 31.550781 -19.765625 31.3125 -19.640625 C 31.070312 -19.523438 30.90625 -19.445312 30.8125 -19.40625 C 30.769531 -19.351562 30.6875 -19.289062 30.5625 -19.21875 C 30.445312 -19.144531 30.363281 -19.109375 30.3125 -19.109375 C 30.125 -19.015625 30.03125 -18.96875 30.03125 -18.96875 C 29.976562 -18.96875 29.925781 -18.941406 29.875 -18.890625 C 29.832031 -18.847656 29.789062 -18.828125 29.75 -18.828125 C 29.550781 -18.785156 29.359375 -18.691406 29.171875 -18.546875 C 28.984375 -18.492188 28.796875 -18.398438 28.609375 -18.265625 C 28.078125 -18.023438 27.242188 -17.664062 26.109375 -17.1875 C 25.390625 -16.90625 24.507812 -16.597656 23.46875 -16.265625 C 23.320312 -16.210938 23.117188 -16.148438 22.859375 -16.078125 C 22.597656 -16.015625 22.421875 -15.984375 22.328125 -15.984375 C 22.179688 -15.117188 21.96875 -14.257812 21.6875 -13.40625 C 20.5 -9.695312 18.476562 -6.851562 15.625 -4.875 C 12.769531 -2.90625 9.890625 -2.375 6.984375 -3.28125 C 4.085938 -4.1875 2.046875 -6.265625 0.859375 -9.515625 C -0.328125 -12.773438 -0.328125 -16.285156 0.859375 -20.046875 C 2.046875 -23.753906 4.066406 -26.59375 6.921875 -28.5625 C 9.773438 -30.539062 12.648438 -31.078125 15.546875 -30.171875 C 17.492188 -29.554688 19.085938 -28.304688 20.328125 -26.421875 C 21.566406 -24.546875 22.28125 -22.375 22.46875 -19.90625 L 22.6875 -19.90625 C 23.875 -20.132812 24.679688 -20.300781 25.109375 -20.40625 C 25.484375 -20.445312 26.269531 -20.660156 27.46875 -21.046875 C 27.75 -21.140625 27.9375 -21.207031 28.03125 -21.25 C 28.3125 -21.351562 28.503906 -21.40625 28.609375 -21.40625 C 28.796875 -21.5 28.890625 -21.546875 28.890625 -21.546875 C 28.929688 -21.546875 28.976562 -21.554688 29.03125 -21.578125 C 29.082031 -21.597656 29.128906 -21.609375 29.171875 -21.609375 C 29.222656 -21.660156 29.304688 -21.707031 29.421875 -21.75 C 29.535156 -21.800781 29.617188 -21.828125 29.671875 -21.828125 L 30.75 -22.25 C 31.03125 -22.34375 31.335938 -22.460938 31.671875 -22.609375 C 32.046875 -22.796875 32.332031 -22.914062 32.53125 -22.96875 C 32.90625 -23.15625 33.164062 -23.273438 33.3125 -23.328125 C 33.351562 -23.367188 33.457031 -23.425781 33.625 -23.5 C 33.789062 -23.570312 33.898438 -23.632812 33.953125 -23.6875 L 34.59375 -23.890625 Z M 17.6875 -22.96875 C 16.78125 -23.25 15.757812 -22.960938 14.625 -22.109375 C 14.71875 -21.921875 14.90625 -21.6875 15.1875 -21.40625 C 15.570312 -21.019531 15.976562 -20.734375 16.40625 -20.546875 C 16.644531 -20.347656 16.90625 -20.226562 17.1875 -20.1875 C 17.757812 -20.039062 18.070312 -19.96875 18.125 -19.96875 C 18.6875 -19.832031 19.253906 -19.765625 19.828125 -19.765625 C 19.492188 -21.566406 18.78125 -22.632812 17.6875 -22.96875 Z M 12.40625 -6.421875 C 13.59375 -6.035156 14.851562 -6.519531 16.1875 -7.875 C 17.519531 -9.238281 18.546875 -11.0625 19.265625 -13.34375 C 19.453125 -13.90625 19.640625 -14.664062 19.828125 -15.625 C 18.878906 -15.53125 18.144531 -15.503906 17.625 -15.546875 C 17.519531 -15.546875 17.359375 -15.554688 17.140625 -15.578125 C 16.929688 -15.609375 16.742188 -15.632812 16.578125 -15.65625 C 16.410156 -15.675781 16.257812 -15.710938 16.125 -15.765625 C 15.789062 -15.804688 15.289062 -15.925781 14.625 -16.125 C 13.8125 -16.363281 12.976562 -16.789062 12.125 -17.40625 C 11.84375 -17.59375 11.65625 -17.734375 11.5625 -17.828125 C 11.457031 -17.585938 11.21875 -16.992188 10.84375 -16.046875 C 10.125 -13.765625 9.921875 -11.679688 10.234375 -9.796875 C 10.546875 -7.921875 11.269531 -6.796875 12.40625 -6.421875 Z M 12.40625 -6.421875 "/></g></g></g><g fill="#363d46" fill-opacity="1"><g transform="translate(159.115055, 99.096186)"><g><path d="M 35.671875 -24.46875 L 36.515625 -22.96875 C 36.273438 -22.78125 35.941406 -22.539062 35.515625 -22.25 C 35.472656 -22.207031 35.378906 -22.148438 35.234375 -22.078125 C 35.085938 -22.003906 34.992188 -21.941406 34.953125 -21.890625 L 34.3125 -21.46875 C 34.257812 -21.425781 34.148438 -21.351562 33.984375 -21.25 C 33.816406 -21.15625 33.6875 -21.082031 33.59375 -21.03125 C 33.5 -20.988281 33.351562 -20.894531 33.15625 -20.75 C 32.96875 -20.613281 32.828125 -20.519531 32.734375 -20.46875 C 32.210938 -20.226562 31.90625 -20.0625 31.8125 -19.96875 C 31.71875 -19.875 31.550781 -19.765625 31.3125 -19.640625 C 31.070312 -19.523438 30.90625 -19.445312 30.8125 -19.40625 C 30.769531 -19.351562 30.6875 -19.289062 30.5625 -19.21875 C 30.445312 -19.144531 30.363281 -19.109375 30.3125 -19.109375 C 30.125 -19.015625 30.03125 -18.96875 30.03125 -18.96875 C 29.976562 -18.96875 29.925781 -18.941406 29.875 -18.890625 C 29.832031 -18.847656 29.789062 -18.828125 29.75 -18.828125 C 29.550781 -18.785156 29.359375 -18.691406 29.171875 -18.546875 C 28.984375 -18.492188 28.796875 -18.398438 28.609375 -18.265625 C 28.078125 -18.023438 27.242188 -17.664062 26.109375 -17.1875 C 25.390625 -16.90625 24.507812 -16.597656 23.46875 -16.265625 C 23.320312 -16.210938 23.117188 -16.148438 22.859375 -16.078125 C 22.597656 -16.015625 22.421875 -15.984375 22.328125 -15.984375 C 22.179688 -15.117188 21.96875 -14.257812 21.6875 -13.40625 C 20.5 -9.695312 18.476562 -6.851562 15.625 -4.875 C 12.769531 -2.90625 9.890625 -2.375 6.984375 -3.28125 C 4.085938 -4.1875 2.046875 -6.265625 0.859375 -9.515625 C -0.328125 -12.773438 -0.328125 -16.285156 0.859375 -20.046875 C 2.046875 -23.753906 4.066406 -26.59375 6.921875 -28.5625 C 9.773438 -30.539062 12.648438 -31.078125 15.546875 -30.171875 C 17.492188 -29.554688 19.085938 -28.304688 20.328125 -26.421875 C 21.566406 -24.546875 22.28125 -22.375 22.46875 -19.90625 L 22.6875 -19.90625 C 23.875 -20.132812 24.679688 -20.300781 25.109375 -20.40625 C 25.484375 -20.445312 26.269531 -20.660156 27.46875 -21.046875 C 27.75 -21.140625 27.9375 -21.207031 28.03125 -21.25 C 28.3125 -21.351562 28.503906 -21.40625 28.609375 -21.40625 C 28.796875 -21.5 28.890625 -21.546875 28.890625 -21.546875 C 28.929688 -21.546875 28.976562 -21.554688 29.03125 -21.578125 C 29.082031 -21.597656 29.128906 -21.609375 29.171875 -21.609375 C 29.222656 -21.660156 29.304688 -21.707031 29.421875 -21.75 C 29.535156 -21.800781 29.617188 -21.828125 29.671875 -21.828125 L 30.75 -22.25 C 31.03125 -22.34375 31.335938 -22.460938 31.671875 -22.609375 C 32.046875 -22.796875 32.332031 -22.914062 32.53125 -22.96875 C 32.90625 -23.15625 33.164062 -23.273438 33.3125 -23.328125 C 33.351562 -23.367188 33.457031 -23.425781 33.625 -23.5 C 33.789062 -23.570312 33.898438 -23.632812 33.953125 -23.6875 L 34.59375 -23.890625 Z M 17.6875 -22.96875 C 16.78125 -23.25 15.757812 -22.960938 14.625 -22.109375 C 14.71875 -21.921875 14.90625 -21.6875 15.1875 -21.40625 C 15.570312 -21.019531 15.976562 -20.734375 16.40625 -20.546875 C 16.644531 -20.347656 16.90625 -20.226562 17.1875 -20.1875 C 17.757812 -20.039062 18.070312 -19.96875 18.125 -19.96875 C 18.6875 -19.832031 19.253906 -19.765625 19.828125 -19.765625 C 19.492188 -21.566406 18.78125 -22.632812 17.6875 -22.96875 Z M 12.40625 -6.421875 C 13.59375 -6.035156 14.851562 -6.519531 16.1875 -7.875 C 17.519531 -9.238281 18.546875 -11.0625 19.265625 -13.34375 C 19.453125 -13.90625 19.640625 -14.664062 19.828125 -15.625 C 18.878906 -15.53125 18.144531 -15.503906 17.625 -15.546875 C 17.519531 -15.546875 17.359375 -15.554688 17.140625 -15.578125 C 16.929688 -15.609375 16.742188 -15.632812 16.578125 -15.65625 C 16.410156 -15.675781 16.257812 -15.710938 16.125 -15.765625 C 15.789062 -15.804688 15.289062 -15.925781 14.625 -16.125 C 13.8125 -16.363281 12.976562 -16.789062 12.125 -17.40625 C 11.84375 -17.59375 11.65625 -17.734375 11.5625 -17.828125 C 11.457031 -17.585938 11.21875 -16.992188 10.84375 -16.046875 C 10.125 -13.765625 9.921875 -11.679688 10.234375 -9.796875 C 10.546875 -7.921875 11.269531 -6.796875 12.40625 -6.421875 Z M 12.40625 -6.421875 "/></g></g></g><g fill="#363d46" fill-opacity="1"><g transform="translate(186.91964, 99.096186)"><g><path d="M 35.671875 -23.96875 L 36.875 -23.328125 C 36.832031 -23.035156 36.738281 -22.640625 36.59375 -22.140625 C 36.445312 -21.648438 36.125 -20.691406 35.625 -19.265625 C 35.125 -17.835938 34.597656 -16.476562 34.046875 -15.1875 C 33.503906 -13.90625 32.769531 -12.476562 31.84375 -10.90625 C 30.914062 -9.34375 29.941406 -7.988281 28.921875 -6.84375 C 27.898438 -5.707031 26.6875 -4.742188 25.28125 -3.953125 C 23.882812 -3.171875 22.425781 -2.78125 20.90625 -2.78125 C 19.476562 -2.6875 18.191406 -3.078125 17.046875 -3.953125 C 15.898438 -4.835938 15.113281 -5.753906 14.6875 -6.703125 L 14.125 -8.0625 C 12.507812 -2.539062 9.726562 0.144531 5.78125 0 C 4.257812 0.0507812 3.035156 -0.835938 2.109375 -2.671875 C 1.179688 -4.503906 0.597656 -6.914062 0.359375 -9.90625 C 0.117188 -12.90625 0 -16.269531 0 -20 C 0 -23.738281 0.148438 -27.507812 0.453125 -31.3125 C 0.765625 -35.113281 1.023438 -38.757812 1.234375 -42.25 C 1.453125 -45.75 1.644531 -48.710938 1.8125 -51.140625 C 1.976562 -53.566406 1.921875 -55.28125 1.640625 -56.28125 C 1.828125 -56.320312 2.0625 -56.363281 2.34375 -56.40625 C 2.632812 -56.457031 3.195312 -56.492188 4.03125 -56.515625 C 4.863281 -56.546875 5.644531 -56.515625 6.375 -56.421875 C 7.113281 -56.328125 7.921875 -56.085938 8.796875 -55.703125 C 9.679688 -55.328125 10.429688 -54.816406 11.046875 -54.171875 C 11.671875 -53.523438 12.160156 -52.609375 12.515625 -51.421875 C 12.867188 -50.234375 13 -48.859375 12.90625 -47.296875 C 12.101562 -36.734375 11.601562 -27.882812 11.40625 -20.75 C 13.21875 -29.269531 15.835938 -33.53125 19.265625 -33.53125 C 22.066406 -33.53125 23.707031 -32.148438 24.1875 -29.390625 C 24.75 -26.148438 23.675781 -22.460938 20.96875 -18.328125 C 19.6875 -16.429688 18.140625 -14.671875 16.328125 -13.046875 C 16.328125 -12.578125 16.363281 -12.066406 16.4375 -11.515625 C 16.507812 -10.972656 16.664062 -10.128906 16.90625 -8.984375 C 17.144531 -7.847656 17.65625 -6.921875 18.4375 -6.203125 C 19.21875 -5.492188 20.179688 -5.140625 21.328125 -5.140625 C 23.085938 -5.140625 24.773438 -5.78125 26.390625 -7.0625 C 28.003906 -8.34375 29.347656 -9.910156 30.421875 -11.765625 C 31.492188 -13.617188 32.441406 -15.472656 33.265625 -17.328125 C 34.097656 -19.179688 34.707031 -20.753906 35.09375 -22.046875 Z M 19.1875 -27.3125 C 18.332031 -27.3125 17.710938 -26.585938 17.328125 -25.140625 C 16.953125 -23.691406 16.550781 -21.46875 16.125 -18.46875 C 16.03125 -17.707031 15.957031 -17.140625 15.90625 -16.765625 C 18.800781 -20.660156 20.300781 -23.679688 20.40625 -25.828125 C 20.40625 -26.816406 20 -27.3125 19.1875 -27.3125 Z M 19.1875 -27.3125 "/></g></g></g><g fill="#363d46" fill-opacity="1"><g transform="translate(216.506572, 99.096186)"><g><path d="M 22.328125 -26.46875 C 24.890625 -26.132812 26.03125 -24.226562 25.75 -20.75 C 25.46875 -16.851562 23.6875 -12.789062 20.40625 -8.5625 C 17.070312 -4.226562 13.289062 -1.347656 9.0625 0.078125 C 8.0625 0.503906 6.988281 0.71875 5.84375 0.71875 C 4.320312 0.757812 3.097656 -0.128906 2.171875 -1.953125 C 1.242188 -3.785156 0.648438 -6.195312 0.390625 -9.1875 C 0.128906 -12.1875 0 -15.550781 0 -19.28125 C 0 -23.019531 0.164062 -26.789062 0.5 -30.59375 C 0.832031 -34.40625 1.101562 -38.054688 1.3125 -41.546875 C 1.53125 -45.046875 1.722656 -48.003906 1.890625 -50.421875 C 2.054688 -52.847656 2 -54.5625 1.71875 -55.5625 C 1.90625 -55.613281 2.140625 -55.660156 2.421875 -55.703125 C 2.710938 -55.753906 3.269531 -55.789062 4.09375 -55.8125 C 4.925781 -55.832031 5.710938 -55.796875 6.453125 -55.703125 C 7.191406 -55.609375 8 -55.367188 8.875 -54.984375 C 9.757812 -54.609375 10.507812 -54.097656 11.125 -53.453125 C 11.738281 -52.816406 12.222656 -51.90625 12.578125 -50.71875 C 12.941406 -49.53125 13.050781 -48.125 12.90625 -46.5 C 11.863281 -32.425781 11.363281 -21.679688 11.40625 -14.265625 C 12.164062 -16.453125 12.984375 -18.398438 13.859375 -20.109375 C 14.742188 -21.828125 15.945312 -23.375 17.46875 -24.75 C 19 -26.125 20.617188 -26.695312 22.328125 -26.46875 Z M 12.34375 -4.921875 C 15.476562 -7.109375 18.046875 -10.578125 20.046875 -15.328125 C 21.660156 -19.234375 22.039062 -21.875 21.1875 -23.25 C 20.945312 -23.632812 20.613281 -23.847656 20.1875 -23.890625 C 18.90625 -23.984375 17.609375 -22.445312 16.296875 -19.28125 C 14.992188 -16.125 14.007812 -12.929688 13.34375 -9.703125 Z M 12.34375 -4.921875 "/></g></g></g><g fill="#363d46" fill-opacity="1"><g transform="translate(244.453722, 99.096186)"><g><path d="M 40.578125 -23.1875 L 42.9375 -23.1875 C 42.75 -22.519531 42.460938 -21.648438 42.078125 -20.578125 C 41.703125 -19.503906 40.847656 -17.597656 39.515625 -14.859375 C 38.179688 -12.128906 36.753906 -9.707031 35.234375 -7.59375 C 33.710938 -5.476562 31.691406 -3.5625 29.171875 -1.84375 C 26.648438 -0.132812 24.035156 0.71875 21.328125 0.71875 C 19.566406 0.71875 18.195312 0.0859375 17.21875 -1.171875 C 16.25 -2.429688 15.664062 -3.941406 15.46875 -5.703125 C 15.28125 -7.460938 15.257812 -9.628906 15.40625 -12.203125 C 12.070312 -8.960938 8.550781 -7.65625 4.84375 -8.28125 C 2.519531 -8.707031 1.023438 -9.867188 0.359375 -11.765625 C -0.304688 -13.671875 -0.15625 -15.71875 0.8125 -17.90625 C 1.789062 -20.09375 3.300781 -21.828125 5.34375 -23.109375 C 8.71875 -25.203125 12.546875 -25.890625 16.828125 -25.171875 C 16.972656 -27.359375 16.925781 -28.953125 16.6875 -29.953125 C 16.875 -30.003906 17.109375 -30.050781 17.390625 -30.09375 C 17.679688 -30.144531 18.242188 -30.179688 19.078125 -30.203125 C 19.910156 -30.234375 20.695312 -30.195312 21.4375 -30.09375 C 22.175781 -30 22.984375 -29.757812 23.859375 -29.375 C 24.734375 -29 25.476562 -28.488281 26.09375 -27.84375 C 26.71875 -27.207031 27.207031 -26.296875 27.5625 -25.109375 C 27.925781 -23.921875 28.035156 -22.519531 27.890625 -20.90625 C 27.171875 -11.007812 27.71875 -6.035156 29.53125 -5.984375 C 30.238281 -5.941406 31.117188 -6.515625 32.171875 -7.703125 C 34.066406 -9.835938 35.71875 -12.203125 37.125 -14.796875 C 38.53125 -17.390625 39.46875 -19.445312 39.9375 -20.96875 Z M 7.625 -16.1875 C 7.53125 -13.757812 8.554688 -12.90625 10.703125 -13.625 C 12.410156 -14.238281 14.171875 -15.519531 15.984375 -17.46875 C 16.171875 -19.28125 16.335938 -20.640625 16.484375 -21.546875 C 15.710938 -21.546875 14.9375 -21.484375 14.15625 -21.359375 C 13.375 -21.242188 12.445312 -21.03125 11.375 -20.71875 C 10.300781 -20.40625 9.421875 -19.859375 8.734375 -19.078125 C 8.046875 -18.296875 7.675781 -17.332031 7.625 -16.1875 Z M 7.625 -16.1875 "/></g></g></g><g fill="#363d46" fill-opacity="1"><g transform="translate(281.383911, 99.096186)"><g><path d="M 30.3125 -19.6875 L 30.59375 -17.96875 C 30.3125 -18.113281 29.910156 -18.316406 29.390625 -18.578125 C 28.867188 -18.835938 27.878906 -19.226562 26.421875 -19.75 C 24.972656 -20.28125 23.609375 -20.648438 22.328125 -20.859375 C 21.046875 -21.078125 19.65625 -21.085938 18.15625 -20.890625 C 16.65625 -20.703125 15.429688 -20.179688 14.484375 -19.328125 C 15.003906 -18.523438 15.75 -17.421875 16.71875 -16.015625 C 17.695312 -14.609375 18.484375 -13.460938 19.078125 -12.578125 C 19.671875 -11.703125 20.382812 -10.609375 21.21875 -9.296875 C 22.050781 -7.992188 22.679688 -6.898438 23.109375 -6.015625 C 23.535156 -5.140625 23.972656 -4.144531 24.421875 -3.03125 C 24.878906 -1.914062 25.117188 -0.941406 25.140625 -0.109375 C 25.160156 0.722656 25.085938 1.566406 24.921875 2.421875 C 24.753906 3.273438 24.375 4.054688 23.78125 4.765625 C 23.1875 5.484375 22.414062 6.128906 21.46875 6.703125 C 18.09375 8.316406 15.238281 8.863281 12.90625 8.34375 L 12.84375 8.34375 C 12.695312 8.34375 12.597656 8.320312 12.546875 8.28125 C 11.929688 8.175781 11.335938 8.007812 10.765625 7.78125 C 10.097656 7.582031 9.269531 7.175781 8.28125 6.5625 C 7.1875 5.851562 6.28125 5.046875 5.5625 4.140625 C 4.65625 2.992188 3.988281 1.707031 3.5625 0.28125 C 3.5625 0.1875 3.550781 0.0820312 3.53125 -0.03125 C 3.507812 -0.15625 3.5 -0.238281 3.5 -0.28125 L 3.421875 -0.421875 L 3.421875 -0.578125 L 3.359375 -0.859375 L 3.28125 -1.0625 L 3.28125 -1.359375 C 3.226562 -1.492188 3.203125 -1.679688 3.203125 -1.921875 C 3.066406 -2.640625 3 -3.398438 3 -4.203125 C 3 -5.921875 3.1875 -7.515625 3.5625 -8.984375 C 3.988281 -10.460938 4.609375 -11.960938 5.421875 -13.484375 C 5.421875 -13.523438 5.445312 -13.546875 5.5 -13.546875 L 5.5625 -13.6875 C 4.800781 -14.738281 4.015625 -15.882812 3.203125 -17.125 C 1.878906 -19.207031 0.96875 -21.140625 0.46875 -22.921875 C -0.03125 -24.710938 -0.148438 -26.203125 0.109375 -27.390625 C 0.367188 -28.578125 0.816406 -29.644531 1.453125 -30.59375 C 2.097656 -31.550781 2.875 -32.300781 3.78125 -32.84375 C 4.6875 -33.394531 5.53125 -33.859375 6.3125 -34.234375 C 7.09375 -34.617188 7.769531 -34.859375 8.34375 -34.953125 L 9.203125 -35.171875 C 7.960938 -32.171875 9.222656 -27.648438 12.984375 -21.609375 C 14.453125 -22.421875 16.054688 -22.910156 17.796875 -23.078125 C 19.535156 -23.242188 21.101562 -23.160156 22.5 -22.828125 C 23.90625 -22.492188 25.210938 -22.085938 26.421875 -21.609375 C 27.640625 -21.140625 28.582031 -20.6875 29.25 -20.25 Z M 8.34375 1.859375 C 8.769531 2.328125 9.410156 2.847656 10.265625 3.421875 L 10.703125 3.640625 C 12.316406 4.210938 13.3125 3.878906 13.6875 2.640625 C 14.070312 1.359375 14.015625 -0.03125 13.515625 -1.53125 C 13.015625 -3.03125 12.382812 -4.347656 11.625 -5.484375 C 10.863281 -6.628906 9.695312 -8.25 8.125 -10.34375 C 7.894531 -10.625 7.726562 -10.835938 7.625 -10.984375 C 7.25 -10.171875 6.941406 -9.242188 6.703125 -8.203125 C 6.421875 -6.828125 6.300781 -5.519531 6.34375 -4.28125 C 6.394531 -3.894531 6.46875 -3.273438 6.5625 -2.421875 C 6.613281 -2.285156 6.660156 -2.097656 6.703125 -1.859375 C 6.753906 -1.617188 6.800781 -1.398438 6.84375 -1.203125 C 6.894531 -1.015625 6.941406 -0.851562 6.984375 -0.71875 C 7.222656 0.1875 7.675781 1.046875 8.34375 1.859375 Z M 8.34375 1.859375 "/></g></g></g><g fill="#363d46" fill-opacity="1"><g transform="translate(307.192244, 99.096186)"><g><path d="M 31.3125 -21.75 L 32.734375 -20.609375 C 28.785156 -13.242188 23.816406 -7.609375 17.828125 -3.703125 C 12.742188 -0.378906 8.441406 0.734375 4.921875 -0.359375 C 1.253906 -1.546875 -0.359375 -4.992188 0.078125 -10.703125 C 0.117188 -11.460938 0.210938 -12.242188 0.359375 -13.046875 C 0.785156 -15.472656 1.554688 -17.566406 2.671875 -19.328125 C 3.785156 -21.085938 5.019531 -22.40625 6.375 -23.28125 C 7.738281 -24.164062 9.191406 -24.8125 10.734375 -25.21875 C 12.273438 -25.625 13.640625 -25.8125 14.828125 -25.78125 C 16.023438 -25.757812 17.023438 -25.628906 17.828125 -25.390625 C 18.878906 -25.054688 19.738281 -24.472656 20.40625 -23.640625 C 21.070312 -22.804688 21.453125 -21.722656 21.546875 -20.390625 C 21.640625 -19.066406 21.160156 -17.570312 20.109375 -15.90625 C 18.453125 -13.195312 15.363281 -11.910156 10.84375 -12.046875 C 10.320312 -7.347656 11.34375 -5.1875 13.90625 -5.5625 C 16.71875 -5.988281 20.640625 -8.9375 25.671875 -14.40625 C 28.578125 -17.59375 30.457031 -20.039062 31.3125 -21.75 Z M 16.546875 -21.46875 C 16.265625 -21.46875 16.003906 -21.46875 15.765625 -21.46875 C 15.523438 -21.46875 15.15625 -21.335938 14.65625 -21.078125 C 14.15625 -20.816406 13.710938 -20.445312 13.328125 -19.96875 C 12.953125 -19.5 12.550781 -18.726562 12.125 -17.65625 C 11.695312 -16.582031 11.363281 -15.3125 11.125 -13.84375 C 14.644531 -13.601562 17.023438 -14.742188 18.265625 -17.265625 C 18.453125 -17.691406 18.59375 -18.203125 18.6875 -18.796875 C 18.78125 -19.390625 18.660156 -19.984375 18.328125 -20.578125 C 17.992188 -21.171875 17.398438 -21.46875 16.546875 -21.46875 Z M 16.546875 -21.46875 "/></g></g></g></svg>